<?xml version="1.0" encoding="UTF-8"?>
<!DOCTYPE svg PUBLIC "-//W3C//DTD SVG 1.1//EN" "http://www.w3.org/Graphics/SVG/1.1/DTD/svg11.dtd">
<!-- Creator: CorelDRAW -->
<svg xmlns="http://www.w3.org/2000/svg" xml:space="preserve" width="5.67533in" height="3.24506in" version="1.1" style="shape-rendering:geometricPrecision; text-rendering:geometricPrecision; image-rendering:optimizeQuality; fill-rule:evenodd; clip-rule:evenodd"
viewBox="0 0 5655.42 3233.68"
 xmlns:xlink="http://www.w3.org/1999/xlink"
 xmlns:xodm="http://www.corel.com/coreldraw/odm/2003">
 <defs>
  <style type="text/css">
   <![CDATA[
    .fil0 {fill:#FFCC29}
    .fil3 {fill:#F58634}
    .fil2 {fill:#F37435}
    .fil7 {fill:#FEFEFE;fill-rule:nonzero}
    .fil5 {fill:#FEFEFE;fill-rule:nonzero}
    .fil1 {fill:#2F6648;fill-rule:nonzero}
    .fil6 {fill:#306647;fill-rule:nonzero}
    .fil4 {fill:url(#id0)}
   ]]>
  </style>
  <radialGradient id="id0" gradientUnits="userSpaceOnUse" gradientTransform="matrix(1.50621 -0 -0 1.4589 -1296 -704)" cx="2560.71" cy="1533.96" r="379.18" fx="2560.71" fy="1533.96">
   <stop offset="0" style="stop-opacity:1; stop-color:#FFCC29"/>
   <stop offset="1" style="stop-opacity:1; stop-color:#F58634"/>
  </radialGradient>
 </defs>
 <g id="Layer_x0020_1">
  <metadata id="CorelCorpID_0Corel-Layer"/>
  <g id="_2221113829952">
   <path class="fil0" d="M1480.37 2372.08c1074.23,-829.96 1074.8,-829.22 -308.47,-432.68 1383.62,-395.27 1383.65,-394.93 -27.51,-205.36 1411.32,-188.77 1411.4,-188.27 -39.3,-296.18 1450.61,109.21 1450.35,109.94 153.84,-420.5 1296.07,531.92 1295.77,532.8 183.79,-502.64 1110.85,1036.74 1110.2,1037.15 371.46,-234.44 737.52,1272.46 736.76,1272.98 443.96,-280.28 291.12,1553.58 290.38,1553.48 432.63,50.37 -143.74,1503.06 -144.64,1502.97 517.1,60.1 -663.26,1442.07 -663.77,1441.51 311.6,313.96 -976.51,1126.55 -977.19,1125.9 372.46,375.16 -1350.34,749.14 -1350.43,748.38 59.28,445.32 -1410.01,301.54 -1410.16,300.63 70.96,532.23 -1480.74,-233.32 -1480.35,-233.97 -217.99,389.12 -1261.7,-624.47 -1261.26,-625.3 -260.43,465.11 -999.52,-1091.52 -998.81,-1091.79 -403.44,169.01 -594.03,-1261.48 -593.19,-1261.85 -482.15,202.09 -109.35,-1463.99 -108.61,-1463.75 -418.97,-122.28 311.8,-1341.14 312.69,-1340.92 -500.77,-146.04 814.83,-1193.83 815.25,-1193.22 -258.03,-362.06zm232.56 -414.19c839.49,-429.76 839.78,-429.18 -158.86,-337.45 998.73,-90.8 998.71,-90.58 6.26,-144.65 992.46,54.64 992.45,55 9.29,-208.55 982.94,264.44 982.67,264.88 157.18,-268.73 825.01,534.58 824.69,535.15 187.79,-321.21 635.97,857.12 635.47,857.31 283.87,-112.53 350.66,970.27 350.07,970.53 339.24,-134.53 9.64,1105.06 9.14,1104.89 290.99,91.09 -282.85,1013.56 -283.48,1013.38 347.78,108.79 -632.2,903.85 -632.5,903.39 175.55,256.34 -808.7,646.22 -809.08,645.69 209.86,306.32 -1019.23,338.19 -1019.2,337.65 -13.85,313.59 -1005.37,22.98 -1005.35,22.33 -16.47,374.81 -988.42,-353.61 -988.08,-354.01 -197.38,238.79 -790.07,-593.65 -789.68,-594.17 -235.85,285.44 -552.79,-880.2 -552.26,-880.3 -297.8,63.4 -253.46,-943.98 -252.84,-944.13 -355.91,75.84 104.23,-1019.78 104.7,-1019.54 -272.79,-138.69 378.47,-880.43 379.04,-880.15 -326.05,-165.7 705.89,-713.54 706.11,-713.05 -132.86,-282.37z"/>
   <g>
    <path class="fil1" d="M5459.9 1688.87c32.84,0 64.89,7.82 96.21,23.54 31.24,15.64 55.67,38.1 73.11,67.24 17.43,29.21 26.2,59.66 26.2,91.26 0,31.36 -8.58,61.56 -25.85,90.44 -17.16,28.97 -41.24,51.44 -72.31,67.4 -31.07,16.05 -63.54,24.03 -97.36,24.03 -33.89,0 -66.37,-7.98 -97.44,-24.03 -31.07,-15.96 -55.23,-38.44 -72.49,-67.4 -17.26,-28.88 -25.94,-59.08 -25.94,-90.44 0,-31.6 8.76,-62.05 26.29,-91.26 17.62,-29.15 42.04,-51.61 73.29,-67.24 31.33,-15.72 63.38,-23.54 96.29,-23.54zm0 30.12c-27.52,0 -54.33,6.59 -80.35,19.67 -26.03,13.08 -46.38,31.85 -61.08,56.21 -14.7,24.36 -22.04,49.71 -22.04,76.04 0,26.25 7.25,51.35 21.68,75.39 14.43,24.03 34.6,42.79 60.54,56.2 25.94,13.41 53.02,20.17 81.25,20.17 28.15,0 55.23,-6.76 81.17,-20.17 25.93,-13.42 46.11,-32.18 60.44,-56.2 14.34,-24.04 21.51,-49.13 21.51,-75.39 0,-26.33 -7.34,-51.68 -21.94,-76.04 -14.6,-24.36 -34.97,-43.13 -61.07,-56.21 -26.12,-13.08 -52.84,-19.67 -80.11,-19.67zm-85.94 252.32l0 -195.53 72.41 0c24.78,0 42.66,1.81 53.72,5.43 11.15,3.62 19.92,9.88 26.56,18.93 6.55,8.96 9.83,18.51 9.83,28.63 0,14.24 -5.49,26.75 -16.55,37.29 -10.98,10.61 -25.58,16.54 -43.81,17.86 7.43,2.88 13.45,6.34 17.88,10.36 8.49,7.66 18.85,20.58 31.15,38.77l25.67 38.26 -41.25 0 -18.76 -30.77c-14.69,-24.28 -26.64,-39.51 -35.67,-45.59 -6.19,-4.45 -15.22,-6.67 -27.16,-6.59l-20 0 0 82.94 -33.99 0zm33.99 -110.11l41.24 0c19.73,0 33.19,-2.71 40.36,-8.14 7.17,-5.44 10.8,-12.68 10.8,-21.57 0,-5.76 -1.77,-10.95 -5.22,-15.47 -3.45,-4.61 -8.23,-7.98 -14.35,-10.21 -6.19,-2.22 -17.52,-3.37 -34.16,-3.37l-38.67 0 0 58.76z"/>
    <g>
     <path class="fil2" d="M2110.97 1865.13c448.88,-346.8 449.11,-346.5 -128.9,-180.8 578.16,-165.17 578.17,-165.03 -11.49,-85.81 589.73,-78.88 589.77,-78.67 -16.42,-123.76 606.15,45.63 606.04,45.94 64.29,-175.71 541.57,222.27 541.45,222.64 76.8,-210.03 464.18,433.21 463.91,433.38 155.22,-97.96 308.18,531.71 307.86,531.93 185.51,-117.12 121.65,649.18 121.34,649.14 180.78,21.04 -60.06,628.07 -60.44,628.03 216.08,25.11 -277.15,602.58 -277.37,602.35 130.2,131.19 -408.04,470.74 -408.33,470.47 155.64,156.77 -564.25,313.04 -564.29,312.72 24.77,186.08 -589.19,126.01 -589.25,125.62 29.65,222.4 -618.75,-97.5 -618.58,-97.77 -91.09,162.6 -527.21,-260.94 -527.03,-261.28 -108.83,194.35 -417.66,-456.1 -417.36,-456.22 -168.58,70.62 -248.22,-527.12 -247.87,-527.27 -201.48,84.44 -45.69,-611.74 -45.38,-611.64 -175.07,-51.1 130.29,-560.41 130.66,-560.32 -209.25,-61.02 340.49,-498.85 340.66,-498.6 -107.82,-151.29zm97.18 -173.07c350.79,-179.58 350.91,-179.33 -66.38,-141 417.33,-37.94 417.32,-37.85 2.62,-60.44 414.71,22.83 414.71,22.98 3.88,-87.14 410.73,110.5 410.62,110.68 65.68,-112.29 344.74,223.38 344.61,223.62 78.47,-134.22 265.75,358.16 265.54,358.24 118.62,-47.02 146.53,405.43 146.28,405.54 141.76,-56.22 4.03,461.76 3.82,461.69 121.59,38.06 -118.19,423.53 -118.45,423.45 145.33,45.46 -264.17,377.68 -264.3,377.49 73.35,107.11 -337.92,270.03 -338.08,269.81 87.7,128 -425.89,141.32 -425.88,141.09 -5.79,131.03 -420.1,9.6 -420.1,9.33 -6.88,156.62 -413.02,-147.76 -412.88,-147.93 -82.48,99.78 -330.14,-248.06 -329.98,-248.28 -98.55,119.27 -230.99,-367.8 -230.77,-367.84 -124.44,26.49 -105.91,-394.45 -105.65,-394.51 -148.72,31.69 43.56,-426.13 43.76,-426.02 -113.98,-57.96 158.14,-367.89 158.39,-367.78 -136.24,-69.24 294.97,-298.16 295.06,-297.96 -55.52,-117.99z"/>
     <path class="fil3" d="M2396.13 1635.88c166.09,-128.32 166.18,-128.21 -47.69,-66.89 213.92,-61.12 213.93,-61.06 -4.26,-31.75 218.21,-29.18 218.22,-29.11 -6.07,-45.79 224.29,16.89 224.24,17 23.79,-65.02 200.39,82.25 200.34,82.38 28.42,-77.71 171.75,160.29 171.65,160.36 57.43,-36.25 114.03,196.74 113.91,196.82 68.64,-43.34 45.01,240.21 44.9,240.19 66.89,7.79 -22.22,232.39 -22.37,232.38 79.95,9.29 -102.55,222.96 -102.63,222.88 48.18,48.54 -150.98,174.18 -151.09,174.08 57.58,58 -208.78,115.83 -208.79,115.71 9.16,68.85 -218,46.62 -218.03,46.48 10.97,82.29 -228.94,-36.08 -228.88,-36.18 -33.7,60.16 -195.08,-96.55 -195.01,-96.68 -40.27,71.91 -154.54,-168.76 -154.43,-168.81 -62.38,26.13 -91.85,-195.04 -91.71,-195.1 -74.54,31.24 -16.91,-226.35 -16.8,-226.32 -64.78,-18.91 48.21,-207.36 48.35,-207.33 -77.42,-22.58 125.98,-184.58 126.05,-184.48 -39.89,-55.98zm35.96 -64.04c129.79,-66.45 129.84,-66.36 -24.56,-52.17 154.42,-14.04 154.42,-14 0.97,-22.36 153.45,8.45 153.45,8.5 1.44,-32.24 151.98,40.88 151.93,40.95 24.3,-41.55 127.55,82.65 127.51,82.74 29.04,-49.66 98.33,132.52 98.25,132.55 43.89,-17.4 54.22,150.02 54.12,150.06 52.45,-20.8 1.49,170.86 1.41,170.83 44.99,14.08 -43.73,156.71 -43.83,156.68 53.78,16.82 -97.75,139.75 -97.79,139.68 27.14,39.63 -125.04,99.92 -125.09,99.83 32.45,47.36 -157.59,52.29 -157.58,52.21 -2.14,48.49 -155.44,3.55 -155.44,3.45 -2.55,57.95 -152.82,-54.67 -152.77,-54.73 -30.52,36.92 -122.16,-91.79 -122.09,-91.87 -36.47,44.13 -85.47,-136.09 -85.39,-136.11 -46.04,9.8 -39.19,-145.95 -39.09,-145.97 -55.03,11.73 16.11,-157.67 16.19,-157.63 -42.18,-21.44 58.51,-136.13 58.6,-136.08 -50.41,-25.62 109.14,-110.32 109.17,-110.25 -20.54,-43.66z"/>
     <path class="fil4" d="M2554.56 1216.75c169.65,0 307.24,142.05 307.24,317.2 0,175.16 -137.59,317.2 -307.24,317.2 -169.65,0 -307.24,-142.04 -307.24,-317.2 0,-175.15 137.59,-317.2 307.24,-317.2z"/>
    </g>
    <g>
     <g>
      <path class="fil5" d="M290.66 2042.38l-242.47 783.81 -48.19 -17.24 242.47 -783.81 24.1 -18.69 24.1 35.93zm282.59 18.69l-306.68 0 0 -54.62 306.68 0 24.1 18.69 -24.1 35.93zm218.36 765.12l-242.45 -783.81 48.19 -17.24 242.45 783.81 -24.1 35.93 -24.1 -18.69zm-229.41 -35.93l253.51 0 0 54.62 -253.51 0 -23.76 -17.69 23.76 -36.93zm-1.56 -54.63l25.32 72.32 -47.53 19.25 -25.32 -72.32 23.76 -36.93 23.76 17.69zm-271.5 -17.69l247.73 0 0 54.62 -247.73 0 -24.07 -36 24.07 -18.62zm-46.65 90.94l22.57 -72.32 48.15 17.38 -22.57 72.32 -24.07 18.62 -24.07 -36zm-218.4 -18.62l242.47 0 0 54.62 -242.47 0 -24.1 -35.93 24.1 -18.69zm467.49 -217.62l-160.33 0 0 -54.62 160.33 0 24.36 19.61 -24.36 35.01zm-54.29 -322.74l78.65 287.73 -48.73 15.4 -78.65 -287.73 0.07 -15.68 48.65 0.27zm-130.33 287.46l81.68 -287.73 48.58 15.95 -81.68 287.73 -24.29 19.33 -24.29 -35.29z"/>
      <path id="_1" class="fil6" d="M24.1 2817.57l242.47 -783.81 306.68 0 242.45 783.81 -253.51 0 -25.32 -72.32 -247.73 0 -22.57 72.32 -242.47 0zm307.16 -272.23l160.33 0 -78.65 -287.73 -81.68 287.73z"/>
     </g>
     <g>
      <path class="fil5" d="M1074.12 2061.07l-232.14 0 0 -54.62 232.14 0 25.39 27.31 -25.39 27.31zm-25.39 374.11l0 -401.42 50.79 0 0 401.42 0 0 -50.79 0zm70.39 132.99l-44.84 25.64 -0.04 -0.07 -1.7 -3.59 -1.62 -3.67 -1.56 -3.75 -1.49 -3.84 -1.42 -3.93 -1.35 -4 -1.3 -4.09 -1.24 -4.19 -1.17 -4.26 -1.12 -4.36 -1.06 -4.44 -1 -4.52 -0.95 -4.62 -0.89 -4.7 -0.84 -4.79 -0.79 -4.89 -0.74 -4.98 -0.69 -5.06 -0.64 -5.16 -0.59 -5.25 -0.55 -5.35 -0.49 -5.45 -0.44 -5.53 -0.4 -5.63 -0.35 -5.73 -0.3 -5.83 -0.26 -5.91 -0.21 -6.02 -0.16 -6.12 -0.11 -6.21 -0.07 -6.3 -0.03 -6.41 50.79 0 0.02 5.98 0.07 5.88 0.11 5.76 0.15 5.64 0.19 5.52 0.23 5.42 0.27 5.29 0.32 5.18 0.36 5.08 0.4 4.95 0.44 4.83 0.47 4.71 0.52 4.61 0.56 4.49 0.59 4.37 0.63 4.24 0.67 4.12 0.7 4.01 0.74 3.88 0.77 3.75 0.81 3.64 0.84 3.52 0.87 3.38 0.9 3.27 0.92 3.12 0.95 3.02 0.98 2.89 1 2.75 1.02 2.64 1.04 2.51 1.06 2.38 1.07 2.25 -0.04 -0.07zm-44.84 25.64l-0.04 -0.07 -0.35 -0.71 0.38 0.78zm131.69 21.81l0 54.62 0 0 -5.45 -0.07 -5.4 -0.2 -5.32 -0.34 -5.24 -0.49 -5.17 -0.62 -5.11 -0.77 -5.01 -0.91 -4.96 -1.06 -4.89 -1.22 -4.81 -1.37 -4.73 -1.53 -4.64 -1.68 -4.56 -1.84 -4.48 -2 -4.4 -2.17 -4.29 -2.33 -4.19 -2.48 -4.11 -2.65 -3.99 -2.82 -3.88 -2.97 -3.77 -3.13 -3.65 -3.27 -3.54 -3.43 -3.42 -3.59 -3.29 -3.73 -3.15 -3.86 -3.03 -4 -2.9 -4.13 -2.77 -4.26 -2.63 -4.37 -2.51 -4.5 -2.38 -4.63 44.84 -25.64 1.55 3.01 1.61 2.88 1.67 2.77 1.72 2.64 1.77 2.52 1.84 2.42 1.89 2.31 1.95 2.2 2 2.1 2.07 2.01 2.15 1.93 2.21 1.83 2.29 1.75 2.36 1.66 2.44 1.58 2.54 1.51 2.63 1.42 2.71 1.34 2.81 1.26 2.92 1.18 3.04 1.1 3.12 1.01 3.24 0.92 3.34 0.84 3.46 0.74 3.6 0.66 3.69 0.56 3.81 0.46 3.93 0.36 4.04 0.26 4.16 0.16 4.28 0.05 0 0zm86.79 -47.36l44.92 25.48 -0.04 0.09 -2.38 4.62 -2.51 4.5 -2.64 4.38 -2.77 4.26 -2.91 4.13 -3.02 3.99 -3.15 3.86 -3.3 3.73 -3.42 3.58 -3.53 3.42 -3.66 3.28 -3.77 3.12 -3.87 2.96 -3.99 2.82 -4.11 2.66 -4.19 2.48 -4.29 2.33 -4.4 2.17 -4.48 2 -4.56 1.84 -4.64 1.68 -4.74 1.53 -4.81 1.37 -4.88 1.22 -4.96 1.06 -5.01 0.91 -5.1 0.77 -5.18 0.62 -5.24 0.49 -5.32 0.34 -5.39 0.2 -5.45 0.07 0 -54.62 4.28 -0.05 4.15 -0.16 4.04 -0.26 3.93 -0.36 3.81 -0.46 3.69 -0.56 3.59 -0.66 3.46 -0.74 3.35 -0.84 3.24 -0.92 3.13 -1.01 3.03 -1.09 2.93 -1.18 2.81 -1.26 2.71 -1.34 2.63 -1.42 2.54 -1.51 2.43 -1.57 2.36 -1.66 2.3 -1.75 2.22 -1.84 2.14 -1.92 2.07 -2.01 2.01 -2.11 1.94 -2.2 1.89 -2.31 1.84 -2.43 1.77 -2.52 1.72 -2.64 1.67 -2.77 1.6 -2.88 1.55 -3.02 -0.04 0.09zm19.64 -133.07l50.79 0 0 0 -0.03 6.41 -0.07 6.3 -0.11 6.21 -0.16 6.11 -0.2 6.02 -0.26 5.92 -0.3 5.82 -0.35 5.73 -0.4 5.63 -0.44 5.53 -0.49 5.45 -0.55 5.35 -0.59 5.25 -0.64 5.17 -0.69 5.06 -0.73 4.97 -0.79 4.89 -0.84 4.79 -0.89 4.7 -0.95 4.62 -1 4.52 -1.06 4.44 -1.12 4.36 -1.17 4.26 -1.23 4.17 -1.29 4.09 -1.36 4.02 -1.42 3.92 -1.48 3.84 -1.56 3.75 -1.62 3.67 -1.7 3.59 -44.92 -25.48 1.07 -2.25 1.05 -2.38 1.04 -2.51 1.02 -2.63 1 -2.77 0.97 -2.87 0.95 -3.02 0.93 -3.14 0.9 -3.27 0.87 -3.38 0.84 -3.52 0.81 -3.64 0.77 -3.75 0.74 -3.88 0.7 -4.01 0.67 -4.12 0.63 -4.25 0.6 -4.37 0.55 -4.48 0.52 -4.61 0.47 -4.71 0.44 -4.83 0.4 -4.95 0.36 -5.08 0.32 -5.18 0.27 -5.3 0.24 -5.41 0.19 -5.52 0.15 -5.65 0.11 -5.75 0.07 -5.88 0.02 -5.98 0 0zm50.79 -401.42l0 401.42 -50.79 0 0 -401.42 25.39 -27.31 25.39 27.31zm206.75 27.31l-232.14 0 0 -54.62 232.14 0 25.39 27.31 -25.39 27.31zm-25.39 387.83l0 -415.14 50.79 0 0 415.14 0 0 -50.79 0zm44.26 154.21l-50.16 -8.56 -0.04 0.27 0.34 -2.57 0.33 -2.69 0.33 -2.81 0.32 -2.99 0.31 -3.1 0.3 -3.23 0.29 -3.36 0.28 -3.49 0.27 -3.63 0.26 -3.75 0.26 -3.88 0.24 -4.01 0.23 -4.14 0.22 -4.26 0.21 -4.39 0.2 -4.51 0.19 -4.64 0.17 -4.75 0.16 -4.88 0.15 -5.01 0.14 -5.14 0.13 -5.26 0.12 -5.39 0.1 -5.51 0.09 -5.62 0.08 -5.75 0.07 -5.89 0.06 -6.01 0.04 -6.12 0.03 -6.25 0.02 -6.38 0.01 -6.5 50.79 0 -0.01 6.61 -0.02 6.49 -0.03 6.38 -0.05 6.25 -0.06 6.13 -0.07 6 -0.08 5.9 -0.09 5.79 -0.11 5.66 -0.12 5.54 -0.13 5.43 -0.14 5.3 -0.16 5.19 -0.17 5.07 -0.18 4.97 -0.2 4.85 -0.2 4.73 -0.22 4.62 -0.23 4.5 -0.25 4.39 -0.26 4.28 -0.27 4.16 -0.28 4.05 -0.3 3.94 -0.31 3.84 -0.33 3.72 -0.34 3.62 -0.35 3.52 -0.36 3.39 -0.38 3.33 -0.4 3.21 -0.41 3.1 -0.04 0.27zm0.04 -0.27l-0.04 0.27 -0.02 0.16 0.06 -0.43zm-145.05 221.26l-22.9 -48.75 0.14 -0.08 6.19 -3.42 6.01 -3.57 5.83 -3.69 5.66 -3.83 5.48 -3.96 5.3 -4.1 5.14 -4.23 4.97 -4.36 4.81 -4.5 4.65 -4.64 4.49 -4.77 4.32 -4.91 4.17 -5.05 4.02 -5.19 3.86 -5.34 3.71 -5.48 3.56 -5.64 3.41 -5.79 3.26 -5.94 3.11 -6.1 2.97 -6.26 2.82 -6.42 2.67 -6.59 2.51 -6.75 2.37 -6.92 2.22 -7.09 2.07 -7.26 1.91 -7.43 1.76 -7.61 1.61 -7.78 1.45 -7.96 1.29 -8.14 50.16 8.56 -1.49 9.42 -1.69 9.28 -1.88 9.13 -2.08 8.98 -2.28 8.83 -2.47 8.68 -2.67 8.53 -2.86 8.38 -3.07 8.23 -3.27 8.07 -3.47 7.91 -3.67 7.74 -3.87 7.59 -4.08 7.43 -4.28 7.25 -4.47 7.09 -4.68 6.92 -4.87 6.73 -5.07 6.56 -5.26 6.38 -5.46 6.19 -5.65 6.01 -5.83 5.82 -6.03 5.64 -6.21 5.45 -6.4 5.26 -6.58 5.07 -6.76 4.88 -6.93 4.69 -7.1 4.5 -7.27 4.31 -7.45 4.13 0.14 -0.08zm-237.82 46.05l0 -54.62 0 0 8.89 -0.04 8.75 -0.12 8.62 -0.2 8.48 -0.29 8.34 -0.36 8.2 -0.45 8.06 -0.53 7.92 -0.61 7.77 -0.69 7.65 -0.77 7.5 -0.84 7.36 -0.93 7.22 -1 7.08 -1.09 6.94 -1.16 6.8 -1.24 6.66 -1.31 6.5 -1.4 6.38 -1.47 6.23 -1.54 6.08 -1.62 5.94 -1.69 5.79 -1.77 5.66 -1.84 5.51 -1.91 5.37 -1.98 5.23 -2.05 5.08 -2.12 4.94 -2.19 4.8 -2.25 4.65 -2.32 4.52 -2.38 22.9 48.75 -5.56 2.94 -5.69 2.83 -5.8 2.72 -5.92 2.62 -6.04 2.51 -6.16 2.42 -6.28 2.32 -6.4 2.22 -6.52 2.12 -6.65 2.02 -6.76 1.93 -6.89 1.83 -7 1.74 -7.11 1.64 -7.25 1.55 -7.36 1.46 -7.48 1.37 -7.6 1.27 -7.72 1.19 -7.85 1.09 -7.97 1 -8.09 0.91 -8.21 0.83 -8.34 0.74 -8.46 0.65 -8.58 0.56 -8.71 0.48 -8.83 0.39 -8.96 0.3 -9.08 0.21 -9.2 0.13 -9.33 0.04 0 0zm-237.71 -45.98l22.62 -48.9 0.14 0.07 4.52 2.38 4.65 2.32 4.8 2.25 4.94 2.19 5.08 2.12 5.23 2.05 5.37 1.98 5.51 1.91 5.66 1.84 5.79 1.77 5.94 1.69 6.08 1.62 6.23 1.54 6.38 1.47 6.51 1.4 6.65 1.31 6.8 1.24 6.94 1.16 7.08 1.09 7.22 1 7.36 0.93 7.5 0.84 7.65 0.77 7.77 0.69 7.92 0.61 8.07 0.53 8.2 0.45 8.34 0.36 8.48 0.29 8.62 0.2 8.76 0.12 8.89 0.04 0 54.62 -9.33 -0.04 -9.2 -0.13 -9.08 -0.21 -8.96 -0.3 -8.84 -0.39 -8.71 -0.48 -8.58 -0.56 -8.46 -0.65 -8.34 -0.74 -8.21 -0.83 -8.1 -0.91 -7.97 -1 -7.85 -1.09 -7.73 -1.19 -7.61 -1.27 -7.48 -1.37 -7.36 -1.46 -7.25 -1.55 -7.12 -1.64 -7 -1.74 -6.89 -1.83 -6.76 -1.93 -6.65 -2.02 -6.52 -2.12 -6.4 -2.22 -6.28 -2.32 -6.16 -2.42 -6.04 -2.51 -5.92 -2.62 -5.8 -2.72 -5.69 -2.83 -5.56 -2.94 0.14 0.07zm-144.7 -221.1l50.17 -8.51 0.01 0.07 1.27 8.13 1.42 7.96 1.58 7.78 1.73 7.6 1.89 7.43 2.04 7.26 2.19 7.09 2.35 6.92 2.5 6.74 2.65 6.59 2.8 6.42 2.95 6.25 3.1 6.1 3.24 5.93 3.4 5.79 3.54 5.64 3.7 5.47 3.85 5.34 4.01 5.19 4.16 5.05 4.31 4.9 4.48 4.77 4.64 4.63 4.8 4.5 4.96 4.36 5.13 4.23 5.3 4.09 5.48 3.96 5.65 3.83 5.83 3.69 6.01 3.57 6.18 3.42 -22.62 48.9 -7.45 -4.12 -7.27 -4.31 -7.1 -4.5 -6.92 -4.69 -6.75 -4.88 -6.57 -5.07 -6.39 -5.27 -6.2 -5.45 -6.02 -5.64 -5.83 -5.83 -5.65 -6.01 -5.45 -6.2 -5.26 -6.38 -5.06 -6.56 -4.86 -6.73 -4.67 -6.92 -4.46 -7.09 -4.26 -7.25 -4.06 -7.43 -3.86 -7.6 -3.65 -7.75 -3.45 -7.91 -3.25 -8.07 -3.05 -8.23 -2.84 -8.38 -2.65 -8.54 -2.44 -8.68 -2.25 -8.84 -2.05 -8.98 -1.85 -9.13 -1.66 -9.28 -1.46 -9.42 0.01 0.07zm50.17 -8.51l0.01 0.07 -0.12 -0.82 0.11 0.76zm-57.14 -138.23l50.79 0 0 0 0.01 5.98 0.02 5.88 0.03 5.77 0.04 5.67 0.06 5.56 0.07 5.45 0.09 5.36 0.09 5.25 0.11 5.14 0.12 5.03 0.13 4.92 0.15 4.82 0.16 4.72 0.17 4.61 0.18 4.49 0.2 4.38 0.21 4.29 0.22 4.17 0.24 4.06 0.25 3.96 0.26 3.85 0.27 3.75 0.28 3.61 0.29 3.51 0.3 3.41 0.31 3.28 0.33 3.18 0.33 3.07 0.34 2.94 0.35 2.82 0.36 2.72 0.37 2.6 -50.17 8.51 -0.44 -3.12 -0.43 -3.21 -0.41 -3.31 -0.4 -3.4 -0.38 -3.47 -0.36 -3.56 -0.35 -3.68 -0.33 -3.75 -0.32 -3.85 -0.3 -3.95 -0.29 -4.03 -0.27 -4.13 -0.26 -4.22 -0.25 -4.33 -0.24 -4.43 -0.22 -4.51 -0.21 -4.62 -0.19 -4.72 -0.18 -4.81 -0.17 -4.91 -0.15 -5.01 -0.14 -5.11 -0.13 -5.22 -0.11 -5.31 -0.1 -5.41 -0.09 -5.5 -0.07 -5.62 -0.06 -5.71 -0.05 -5.81 -0.03 -5.92 -0.02 -6 -0.01 -6.12 0 0zm50.79 -422.58l0 422.58 -50.79 0 0 -422.58 25.39 -27.31 25.39 27.31z"/>
      <path id="_1_0" class="fil6" d="M841.98 2033.76l232.14 0 0 401.42c0,66.63 7.56,115.24 22.58,145.81 20.44,41.35 56.82,61.94 109.26,61.94 52.43,0 88.79,-20.58 109.25,-61.94 14.99,-30.57 22.57,-79.18 22.57,-145.81l0 -401.42 232.14 0 0 415.14c0,70.55 -2.13,120.34 -6.22,149.92 -13.94,94.48 -57.73,161.5 -131.38,200.9 -53.04,28.82 -128.5,43.12 -226.37,43.12 -97.9,0 -173.36,-14.3 -226.4,-43.12 -73.64,-39.4 -117.29,-106.42 -130.92,-200.9 -4.39,-29.97 -6.66,-77.42 -6.66,-142.48l0 -422.58z"/>
     </g>
     <g>
      <path class="fil5" d="M1708.24 2033.76l0 783.81 -50.79 0 0 -783.81 25.39 -27.31 25.39 27.31zm424.36 27.31l-449.75 0 0 -54.62 449.75 0 0 0 0 54.62zm163.92 -40.93l-14.48 52.35 -0.09 -0.03 -1.92 -0.59 -2.11 -0.6 -2.33 -0.6 -2.54 -0.6 -2.73 -0.59 -2.9 -0.58 -3.09 -0.56 -3.28 -0.55 -3.45 -0.53 -3.63 -0.51 -3.81 -0.49 -3.97 -0.48 -4.14 -0.45 -4.32 -0.44 -4.46 -0.41 -4.65 -0.38 -4.8 -0.37 -4.96 -0.34 -5.13 -0.32 -5.29 -0.29 -5.45 -0.27 -5.62 -0.25 -5.76 -0.23 -5.94 -0.2 -6.09 -0.18 -6.24 -0.15 -6.41 -0.13 -6.56 -0.11 -6.72 -0.08 -6.88 -0.06 -7.03 -0.04 -7.19 -0.01 0 -54.62 7.34 0.01 7.2 0.04 7.05 0.06 6.9 0.09 6.76 0.11 6.6 0.13 6.46 0.16 6.3 0.19 6.16 0.21 6.02 0.24 5.86 0.26 5.73 0.28 5.58 0.32 5.43 0.34 5.29 0.36 5.14 0.39 4.99 0.42 4.88 0.45 4.72 0.47 4.59 0.5 4.45 0.53 4.3 0.56 4.18 0.59 4.04 0.62 3.91 0.66 3.79 0.69 3.68 0.73 3.54 0.77 3.42 0.81 3.33 0.86 3.24 0.91 3.12 0.97 -0.09 -0.03zm-14.48 52.35l-0.09 -0.03 -0.04 -0.01 0.12 0.04zm124.71 51.61l-46.16 22.78 -0.02 -0.05 -1.6 -3.66 -1.66 -3.56 -1.7 -3.45 -1.75 -3.35 -1.82 -3.28 -1.86 -3.18 -1.9 -3.06 -1.96 -2.98 -2.01 -2.9 -2.06 -2.81 -2.11 -2.72 -2.17 -2.64 -2.21 -2.55 -2.28 -2.47 -2.32 -2.39 -2.39 -2.31 -2.44 -2.24 -2.48 -2.15 -2.56 -2.08 -2.62 -2.02 -2.67 -1.93 -2.74 -1.86 -2.81 -1.79 -2.87 -1.72 -2.94 -1.66 -3 -1.58 -3.09 -1.51 -3.16 -1.44 -3.22 -1.37 -3.31 -1.3 -3.37 -1.23 -3.46 -1.15 14.48 -52.35 4.63 1.55 4.57 1.66 4.5 1.77 4.44 1.89 4.36 1.99 4.3 2.11 4.24 2.23 4.16 2.34 4.09 2.45 4.01 2.57 3.94 2.68 3.86 2.8 3.77 2.9 3.7 3.02 3.63 3.14 3.53 3.24 3.44 3.35 3.37 3.46 3.27 3.56 3.19 3.67 3.1 3.77 3.01 3.87 2.92 3.97 2.83 4.07 2.74 4.17 2.66 4.28 2.55 4.35 2.46 4.43 2.38 4.55 2.28 4.64 2.2 4.72 2.1 4.81 -0.02 -0.05zm24.14 134.88l-50.79 0 0 0 -0.02 -4.22 -0.06 -4.17 -0.1 -4.14 -0.14 -4.08 -0.18 -4.03 -0.22 -4 -0.26 -3.94 -0.3 -3.89 -0.33 -3.86 -0.37 -3.8 -0.41 -3.75 -0.45 -3.7 -0.49 -3.66 -0.53 -3.63 -0.56 -3.57 -0.6 -3.52 -0.64 -3.49 -0.67 -3.42 -0.71 -3.38 -0.75 -3.33 -0.78 -3.3 -0.82 -3.24 -0.86 -3.19 -0.89 -3.16 -0.92 -3.11 -0.96 -3.06 -1 -3.01 -1.03 -2.97 -1.07 -2.95 -1.1 -2.89 -1.13 -2.84 -1.17 -2.81 46.16 -22.78 1.51 3.63 1.47 3.68 1.41 3.72 1.36 3.73 1.32 3.79 1.26 3.84 1.21 3.87 1.17 3.9 1.11 3.93 1.07 3.99 1.01 4.02 0.97 4.04 0.91 4.1 0.87 4.13 0.82 4.17 0.77 4.19 0.72 4.24 0.67 4.28 0.62 4.3 0.58 4.35 0.53 4.39 0.49 4.43 0.44 4.46 0.39 4.48 0.35 4.53 0.29 4.57 0.26 4.59 0.2 4.64 0.16 4.67 0.11 4.7 0.07 4.75 0.02 4.78 0 0zm-40.28 166.01l-40.23 -33.34 -0.17 0.24 1.71 -2.52 1.66 -2.61 1.62 -2.71 1.58 -2.81 1.54 -2.92 1.49 -3.01 1.44 -3.11 1.4 -3.22 1.35 -3.33 1.31 -3.44 1.26 -3.54 1.2 -3.65 1.16 -3.76 1.11 -3.87 1.05 -3.97 1 -4.09 0.95 -4.21 0.89 -4.31 0.83 -4.42 0.78 -4.54 0.72 -4.64 0.66 -4.74 0.59 -4.86 0.54 -4.98 0.47 -5.08 0.41 -5.18 0.35 -5.31 0.29 -5.4 0.22 -5.5 0.16 -5.62 0.1 -5.74 0.03 -5.83 50.79 0 -0.04 6.49 -0.11 6.39 -0.18 6.32 -0.26 6.25 -0.33 6.15 -0.4 6.05 -0.47 5.98 -0.55 5.9 -0.62 5.8 -0.7 5.73 -0.78 5.66 -0.86 5.56 -0.93 5.47 -1.02 5.4 -1.09 5.31 -1.17 5.22 -1.26 5.16 -1.34 5.06 -1.42 4.98 -1.51 4.9 -1.6 4.82 -1.68 4.73 -1.76 4.64 -1.86 4.56 -1.95 4.48 -2.04 4.39 -2.13 4.29 -2.22 4.2 -2.31 4.11 -2.41 4.02 -2.51 3.93 -2.59 3.82 -0.17 0.24zm-52.38 45.3l-21.54 -49.46 -0.19 0.1 1.28 -0.67 1.26 -0.69 1.27 -0.71 1.25 -0.73 1.2 -0.72 1.2 -0.75 1.2 -0.77 1.17 -0.77 1.16 -0.79 1.13 -0.8 1.13 -0.82 1.12 -0.84 1.1 -0.85 1.09 -0.87 1.07 -0.89 1.07 -0.91 1.02 -0.89 1.02 -0.92 1.04 -0.97 1.01 -0.97 1 -0.98 0.96 -0.98 0.97 -1.02 0.97 -1.04 0.93 -1.04 0.95 -1.09 0.91 -1.08 0.9 -1.1 0.89 -1.11 0.88 -1.15 0.88 -1.17 0.86 -1.18 40.23 33.34 -1.31 1.81 -1.33 1.78 -1.37 1.77 -1.38 1.74 -1.41 1.72 -1.43 1.69 -1.43 1.64 -1.48 1.65 -1.48 1.6 -1.5 1.58 -1.55 1.58 -1.55 1.53 -1.57 1.5 -1.57 1.46 -1.62 1.47 -1.66 1.45 -1.63 1.39 -1.66 1.37 -1.69 1.35 -1.7 1.32 -1.72 1.29 -1.74 1.27 -1.78 1.25 -1.78 1.22 -1.8 1.19 -1.8 1.15 -1.83 1.14 -1.87 1.11 -1.85 1.07 -1.86 1.05 -1.9 1.03 -1.92 1 -0.19 0.1zm-43.09 -35.52l-17.21 51.39 2.02 -52.07 1.61 -0.46 1.6 -0.48 1.57 -0.47 1.51 -0.46 1.55 -0.47 1.45 -0.45 1.42 -0.46 1.45 -0.46 1.38 -0.45 1.37 -0.46 1.32 -0.44 1.26 -0.43 1.26 -0.44 1.26 -0.44 1.2 -0.43 1.17 -0.43 1.14 -0.42 1.13 -0.43 1.07 -0.4 1.04 -0.41 1.04 -0.41 0.94 -0.38 0.97 -0.4 0.94 -0.39 0.87 -0.37 0.86 -0.37 0.81 -0.36 0.8 -0.36 0.74 -0.35 0.71 -0.33 0.69 -0.33 0.63 -0.31 21.54 49.46 -1.07 0.53 -1.07 0.52 -1.11 0.53 -1.13 0.52 -1.13 0.51 -1.17 0.52 -1.18 0.51 -1.23 0.53 -1.2 0.5 -1.23 0.51 -1.31 0.53 -1.28 0.5 -1.33 0.52 -1.35 0.51 -1.34 0.51 -1.4 0.51 -1.42 0.51 -1.44 0.51 -1.43 0.51 -1.49 0.52 -1.54 0.53 -1.54 0.52 -1.55 0.51 -1.58 0.51 -1.58 0.51 -1.66 0.53 -1.69 0.53 -1.65 0.51 -1.73 0.53 -1.73 0.51 -1.75 0.52 -1.8 0.53 2.02 -52.07zm78.48 48.04l-37.48 36.85 0.27 0.31 -0.77 -0.85 -0.82 -0.87 -0.88 -0.88 -0.98 -0.94 -1.03 -0.95 -1.09 -0.95 -1.17 -0.98 -1.26 -1.01 -1.32 -1.02 -1.37 -1.02 -1.45 -1.04 -1.53 -1.06 -1.59 -1.07 -1.66 -1.07 -1.72 -1.08 -1.82 -1.1 -1.88 -1.1 -1.93 -1.1 -2 -1.1 -2.08 -1.11 -2.15 -1.12 -2.2 -1.11 -2.29 -1.13 -2.33 -1.12 -2.41 -1.12 -2.49 -1.13 -2.55 -1.13 -2.62 -1.13 -2.67 -1.13 -2.74 -1.12 -2.81 -1.13 -2.87 -1.13 17.21 -51.39 3.23 1.27 3.17 1.27 3.13 1.29 3.08 1.29 3.02 1.31 2.96 1.31 2.9 1.32 2.87 1.33 2.82 1.35 2.75 1.35 2.71 1.37 2.66 1.38 2.6 1.39 2.57 1.42 2.52 1.44 2.45 1.44 2.4 1.45 2.37 1.48 2.31 1.5 2.26 1.51 2.2 1.53 2.17 1.56 2.13 1.59 2.06 1.6 2.02 1.62 1.98 1.66 1.95 1.71 1.88 1.73 1.81 1.73 1.8 1.81 1.73 1.83 1.68 1.86 0.27 0.31zm38.54 121.72l-50.6 4.68 0.02 0.2 -0.4 -4.42 -0.44 -4.32 -0.47 -4.23 -0.5 -4.11 -0.53 -4.01 -0.56 -3.91 -0.6 -3.82 -0.62 -3.72 -0.65 -3.58 -0.69 -3.49 -0.71 -3.4 -0.74 -3.3 -0.76 -3.17 -0.79 -3.06 -0.82 -2.98 -0.84 -2.87 -0.86 -2.74 -0.88 -2.65 -0.9 -2.55 -0.92 -2.43 -0.93 -2.32 -0.95 -2.22 -0.97 -2.11 -0.97 -2 -0.98 -1.89 -1 -1.81 -0.99 -1.69 -0.99 -1.57 -1 -1.49 -0.99 -1.38 -1 -1.3 -0.99 -1.21 37.48 -36.85 2.15 2.62 2.08 2.71 2 2.81 1.93 2.88 1.86 2.97 1.78 3.03 1.7 3.09 1.65 3.19 1.58 3.26 1.51 3.33 1.46 3.39 1.4 3.47 1.33 3.54 1.28 3.6 1.23 3.68 1.18 3.77 1.11 3.81 1.07 3.89 1.02 3.99 0.97 4.04 0.92 4.11 0.88 4.18 0.84 4.28 0.79 4.36 0.74 4.41 0.71 4.48 0.66 4.58 0.62 4.65 0.58 4.74 0.53 4.8 0.49 4.89 0.46 4.97 0.02 0.2zm-0.02 -0.2l0.02 0.2 -0.02 -0.29 0.01 0.09zm5.4 113.07l-50.77 1.62 -0 -0.26 -0.07 -3.71 -0.08 -3.69 -0.09 -3.67 -0.09 -3.65 -0.1 -3.62 -0.1 -3.62 -0.11 -3.6 -0.12 -3.58 -0.12 -3.56 -0.13 -3.54 -0.13 -3.52 -0.14 -3.5 -0.14 -3.48 -0.15 -3.45 -0.16 -3.45 -0.16 -3.45 -0.16 -3.41 -0.18 -3.39 -0.18 -3.39 -0.18 -3.34 -0.19 -3.33 -0.2 -3.34 -0.2 -3.29 -0.21 -3.3 -0.21 -3.27 -0.22 -3.24 -0.22 -3.25 -0.22 -3.19 -0.24 -3.21 -0.24 -3.18 -0.25 -3.16 -0.25 -3.15 50.6 -4.68 0.26 3.26 0.26 3.29 0.24 3.3 0.24 3.3 0.24 3.36 0.23 3.34 0.23 3.37 0.22 3.39 0.21 3.39 0.21 3.44 0.2 3.42 0.2 3.46 0.19 3.49 0.18 3.47 0.18 3.51 0.17 3.53 0.17 3.53 0.16 3.56 0.16 3.59 0.15 3.59 0.14 3.61 0.14 3.63 0.13 3.64 0.13 3.67 0.12 3.68 0.11 3.7 0.11 3.72 0.1 3.75 0.09 3.75 0.09 3.77 0.08 3.79 0.07 3.81 -0 -0.26zm-50.77 1.62l-0 -0.26 0.01 0.36 -0 -0.1zm55.32 59.43l-49.86 10.43 0.3 1.43 -0.35 -1.55 -0.31 -1.53 -0.29 -1.54 -0.27 -1.58 -0.26 -1.59 -0.26 -1.68 -0.23 -1.68 -0.23 -1.72 -0.22 -1.8 -0.2 -1.79 -0.21 -1.9 -0.2 -1.95 -0.18 -1.95 -0.18 -2.03 -0.18 -2.11 -0.17 -2.17 -0.16 -2.18 -0.16 -2.26 -0.16 -2.35 -0.15 -2.38 -0.15 -2.47 -0.13 -2.51 -0.13 -2.55 -0.13 -2.66 -0.13 -2.71 -0.11 -2.76 -0.11 -2.82 -0.11 -2.88 -0.1 -2.95 -0.1 -3.01 -0.09 -3.1 -0.09 -3.15 50.77 -1.62 0.08 3.03 0.09 2.95 0.09 2.9 0.1 2.82 0.1 2.75 0.11 2.68 0.11 2.61 0.11 2.51 0.12 2.44 0.13 2.42 0.13 2.32 0.13 2.22 0.14 2.18 0.13 2.08 0.15 2.03 0.15 1.98 0.15 1.85 0.15 1.77 0.16 1.73 0.16 1.67 0.15 1.53 0.16 1.45 0.16 1.43 0.16 1.28 0.16 1.23 0.16 1.13 0.15 1 0.15 0.96 0.15 0.84 0.14 0.74 0.13 0.62 0.1 0.46 0.3 1.43zm-0.3 -1.43l0.17 0.75 0.13 0.68 -0.3 -1.43zm-12.67 67.87l0 -54.62 -22.72 39.52 -0.63 -1.36 -0.63 -1.39 -0.6 -1.34 -0.58 -1.31 -0.58 -1.33 -0.58 -1.35 -0.56 -1.32 -0.55 -1.31 -0.55 -1.33 -0.51 -1.26 -0.51 -1.27 -0.53 -1.36 -0.48 -1.26 -0.46 -1.23 -0.49 -1.33 -0.46 -1.28 -0.43 -1.23 -0.43 -1.25 -0.42 -1.26 -0.4 -1.23 -0.39 -1.24 -0.38 -1.25 -0.37 -1.25 -0.36 -1.28 -0.34 -1.24 -0.31 -1.18 -0.31 -1.22 -0.31 -1.29 -0.27 -1.24 -0.26 -1.22 -0.25 -1.24 -0.24 -1.25 49.86 -10.43 0.09 0.49 0.11 0.53 0.12 0.56 0.13 0.58 0.13 0.55 0.16 0.64 0.18 0.71 0.18 0.67 0.19 0.66 0.21 0.72 0.22 0.74 0.24 0.77 0.26 0.81 0.26 0.79 0.29 0.84 0.31 0.88 0.31 0.86 0.3 0.83 0.36 0.95 0.36 0.95 0.34 0.87 0.39 0.98 0.41 1.02 0.4 0.98 0.42 1.02 0.44 1.02 0.45 1.03 0.47 1.06 0.49 1.11 0.5 1.11 0.49 1.07 0.53 1.13 -22.72 39.52zm-242.89 -54.62l242.89 0 0 54.62 -242.89 0 -25.13 -23.41 25.13 -31.21zm-32.5 -75.03l50.76 -1.91 -0 -0.03 0.15 4.15 0.15 4.08 0.16 4.01 0.16 3.96 0.16 3.88 0.17 3.82 0.17 3.77 0.18 3.7 0.18 3.63 0.19 3.56 0.19 3.5 0.2 3.45 0.2 3.38 0.21 3.3 0.21 3.24 0.22 3.19 0.22 3.12 0.23 3.04 0.23 2.97 0.24 2.92 0.24 2.86 0.24 2.77 0.25 2.72 0.25 2.66 0.25 2.57 0.26 2.5 0.26 2.45 0.26 2.38 0.27 2.31 0.27 2.24 0.27 2.14 0.27 2.1 -50.26 7.81 -0.32 -2.41 -0.31 -2.49 -0.3 -2.52 -0.3 -2.58 -0.29 -2.63 -0.29 -2.69 -0.29 -2.77 -0.27 -2.83 -0.27 -2.86 -0.26 -2.92 -0.26 -3 -0.25 -3.04 -0.25 -3.1 -0.24 -3.17 -0.24 -3.23 -0.23 -3.27 -0.23 -3.34 -0.22 -3.41 -0.22 -3.47 -0.21 -3.52 -0.21 -3.57 -0.2 -3.64 -0.2 -3.71 -0.19 -3.77 -0.18 -3.81 -0.18 -3.88 -0.18 -3.95 -0.16 -4.01 -0.16 -4.06 -0.16 -4.13 -0.15 -4.19 -0.15 -4.24 -0 -0.03zm0 0.03l-0 -0.03 -0.09 -2.7 0.09 2.73zm-6 -95.07l50.36 -7.05 0.02 0.15 0.26 2.33 0.27 2.39 0.26 2.44 0.26 2.49 0.25 2.53 0.24 2.57 0.24 2.64 0.24 2.69 0.23 2.74 0.23 2.79 0.22 2.82 0.22 2.89 0.22 2.97 0.21 2.99 0.2 3.02 0.2 3.1 0.2 3.17 0.19 3.2 0.18 3.23 0.19 3.3 0.18 3.37 0.18 3.41 0.17 3.46 0.17 3.51 0.16 3.58 0.16 3.61 0.15 3.65 0.15 3.73 0.14 3.77 0.15 3.83 0.13 3.89 0.13 3.93 -50.76 1.91 -0.13 -3.84 -0.13 -3.77 -0.14 -3.73 -0.14 -3.68 -0.15 -3.61 -0.15 -3.58 -0.15 -3.51 -0.16 -3.44 -0.16 -3.4 -0.16 -3.35 -0.17 -3.29 -0.17 -3.21 -0.18 -3.18 -0.18 -3.14 -0.18 -3.06 -0.18 -2.99 -0.2 -2.95 -0.2 -2.91 -0.2 -2.84 -0.2 -2.76 -0.21 -2.72 -0.21 -2.69 -0.21 -2.61 -0.22 -2.55 -0.22 -2.49 -0.22 -2.44 -0.23 -2.4 -0.22 -2.32 -0.23 -2.26 -0.23 -2.2 -0.24 -2.14 -0.24 -2.1 0.02 0.15zm50.36 -7.05l0.02 0.15 0.05 0.4 -0.07 -0.55zm-74.37 -44.05l12.26 -53 1.5 0.46 3.26 1.19 3.22 1.35 3.15 1.51 3.07 1.66 3.01 1.82 2.95 1.98 2.83 2.11 2.72 2.23 2.66 2.4 2.54 2.52 2.42 2.61 2.33 2.75 2.22 2.84 2.11 2.95 2.01 3.06 1.89 3.13 1.79 3.21 1.7 3.3 1.59 3.37 1.51 3.46 1.41 3.53 1.33 3.61 1.23 3.68 1.15 3.73 1.07 3.82 1 3.91 0.91 3.97 0.84 4.02 0.77 4.11 0.7 4.2 0.63 4.26 0.56 4.33 -50.36 7.05 -0.44 -3.33 -0.47 -3.21 -0.51 -3.07 -0.56 -2.96 -0.6 -2.86 -0.62 -2.72 -0.66 -2.57 -0.69 -2.48 -0.73 -2.37 -0.75 -2.22 -0.77 -2.1 -0.79 -1.98 -0.81 -1.85 -0.82 -1.74 -0.83 -1.62 -0.85 -1.52 -0.85 -1.4 -0.84 -1.28 -0.85 -1.18 -0.86 -1.11 -0.85 -1 -0.87 -0.94 -0.86 -0.85 -0.85 -0.77 -0.89 -0.73 -0.9 -0.67 -0.89 -0.6 -0.93 -0.56 -0.99 -0.53 -1 -0.48 -1.06 -0.44 -1.12 -0.41 1.5 0.46zm-56.89 -5.47l0 -54.62 0.33 0 2.72 0.04 2.68 0.05 2.64 0.07 2.59 0.07 2.58 0.09 2.52 0.1 2.48 0.11 2.46 0.12 2.41 0.13 2.35 0.14 2.33 0.15 2.31 0.16 2.26 0.17 2.22 0.19 2.19 0.2 2.15 0.21 2.11 0.22 2.08 0.23 2.05 0.24 1.99 0.26 1.97 0.27 1.97 0.28 1.92 0.3 1.85 0.3 1.86 0.32 1.83 0.34 1.76 0.34 1.76 0.36 1.74 0.38 1.71 0.4 1.69 0.42 1.64 0.43 -12.26 53 -1.02 -0.26 -1.05 -0.26 -1.1 -0.26 -1.17 -0.26 -1.22 -0.25 -1.3 -0.26 -1.32 -0.24 -1.38 -0.24 -1.46 -0.24 -1.47 -0.23 -1.51 -0.22 -1.58 -0.21 -1.65 -0.21 -1.68 -0.2 -1.73 -0.19 -1.78 -0.18 -1.83 -0.18 -1.87 -0.17 -1.92 -0.16 -1.97 -0.16 -1.99 -0.14 -2.06 -0.13 -2.13 -0.13 -2.16 -0.12 -2.19 -0.11 -2.25 -0.1 -2.3 -0.09 -2.33 -0.08 -2.39 -0.07 -2.44 -0.06 -2.48 -0.05 -2.52 -0.04 0.33 0zm-131.82 -54.62l131.82 0 0 54.62 -131.82 0 -25.39 -27.31 25.39 -27.31zm-25.39 308.57l0 -281.26 50.79 0 0 281.26 -25.39 27.31 -25.39 -27.31zm-206.76 -27.31l232.16 0 0 54.62 -232.16 0 -25.39 -27.31 25.39 -27.31zm386.25 -392.06l-154.1 0 0 -54.62 154.1 0 0 0 0 54.62zm46.21 -59.27l20.02 50.19 -0.45 0.2 -1.63 0.68 -1.66 0.65 -1.63 0.58 -1.66 0.55 -1.71 0.53 -1.71 0.49 -1.7 0.45 -1.73 0.42 -1.82 0.41 -1.78 0.37 -1.81 0.35 -1.87 0.34 -1.9 0.31 -1.93 0.29 -1.94 0.27 -2 0.26 -2.04 0.24 -2.05 0.22 -2.11 0.2 -2.15 0.19 -2.17 0.17 -2.23 0.16 -2.29 0.14 -2.31 0.13 -2.33 0.11 -2.39 0.1 -2.43 0.08 -2.48 0.07 -2.52 0.05 -2.56 0.04 -2.61 0.02 -2.65 0.01 0 -54.62 2.39 -0.01 2.33 -0.02 2.29 -0.03 2.22 -0.04 2.17 -0.06 2.12 -0.07 2.06 -0.08 2.03 -0.1 1.94 -0.1 1.86 -0.12 1.84 -0.13 1.79 -0.14 1.71 -0.15 1.65 -0.16 1.62 -0.17 1.53 -0.18 1.47 -0.19 1.43 -0.2 1.34 -0.2 1.27 -0.21 1.2 -0.21 1.16 -0.23 1.09 -0.23 0.96 -0.22 0.94 -0.24 0.87 -0.23 0.77 -0.22 0.67 -0.2 0.62 -0.21 0.55 -0.2 0.42 -0.16 0.35 -0.15 -0.45 0.2zm17.04 -47.82l50.79 0 0 0 -0.04 4.1 -0.11 4.04 -0.18 4 -0.26 3.93 -0.34 3.87 -0.42 3.81 -0.5 3.76 -0.59 3.73 -0.67 3.65 -0.77 3.6 -0.86 3.57 -0.96 3.49 -1.05 3.44 -1.17 3.4 -1.27 3.32 -1.38 3.26 -1.49 3.19 -1.6 3.12 -1.73 3.06 -1.85 2.97 -1.96 2.88 -2.08 2.78 -2.21 2.69 -2.32 2.56 -2.41 2.44 -2.53 2.33 -2.63 2.19 -2.73 2.06 -2.81 1.91 -2.87 1.76 -2.97 1.64 -3.02 1.48 -20.02 -50.19 0.97 -0.47 0.89 -0.49 0.87 -0.54 0.81 -0.55 0.75 -0.56 0.73 -0.62 0.69 -0.63 0.69 -0.7 0.66 -0.73 0.64 -0.78 0.64 -0.86 0.64 -0.93 0.62 -1 0.6 -1.07 0.61 -1.18 0.6 -1.28 0.58 -1.38 0.57 -1.49 0.54 -1.58 0.53 -1.71 0.5 -1.81 0.46 -1.91 0.44 -2.05 0.4 -2.17 0.36 -2.25 0.32 -2.39 0.27 -2.5 0.23 -2.61 0.18 -2.73 0.13 -2.82 0.08 -2.95 0.03 -3.06 0 0zm-13.33 -39.64l27.74 -45.75 -0.19 -0.13 2.34 1.68 2.25 1.75 2.21 1.86 2.17 1.98 2.05 2.03 1.98 2.11 1.92 2.22 1.83 2.28 1.75 2.36 1.66 2.43 1.57 2.48 1.5 2.57 1.4 2.61 1.31 2.64 1.24 2.73 1.14 2.74 1.07 2.8 0.98 2.84 0.9 2.87 0.83 2.92 0.75 2.96 0.67 2.99 0.61 3.02 0.53 3.06 0.46 3.07 0.4 3.1 0.34 3.16 0.27 3.21 0.21 3.22 0.15 3.23 0.09 3.29 0.03 3.32 -50.79 0 -0.02 -2.29 -0.06 -2.2 -0.1 -2.16 -0.13 -2.06 -0.17 -1.97 -0.2 -1.91 -0.24 -1.85 -0.27 -1.78 -0.29 -1.68 -0.32 -1.6 -0.35 -1.53 -0.37 -1.45 -0.39 -1.38 -0.42 -1.32 -0.42 -1.23 -0.45 -1.17 -0.46 -1.12 -0.47 -1.02 -0.49 -0.99 -0.49 -0.92 -0.49 -0.85 -0.52 -0.83 -0.52 -0.77 -0.54 -0.72 -0.55 -0.69 -0.55 -0.64 -0.6 -0.64 -0.61 -0.61 -0.6 -0.55 -0.66 -0.55 -0.7 -0.55 -0.71 -0.51 -0.19 -0.13zm0.19 0.13l-0.19 -0.13 -0.2 -0.14 0.39 0.27zm-48.44 -7.27l0 -54.62 0 0 3.02 0.01 2.96 0.04 2.93 0.06 2.88 0.09 2.81 0.11 2.79 0.14 2.74 0.16 2.68 0.19 2.63 0.22 2.61 0.24 2.56 0.27 2.52 0.3 2.46 0.33 2.42 0.36 2.4 0.39 2.33 0.42 2.3 0.45 2.29 0.49 2.26 0.53 2.19 0.56 2.16 0.59 2.13 0.64 2.11 0.68 2.09 0.73 2.07 0.79 2.02 0.83 1.97 0.87 2.01 0.97 1.99 1.04 1.89 1.07 1.9 1.17 1.9 1.28 -27.74 45.75 -0.2 -0.14 -0.32 -0.2 -0.44 -0.25 -0.46 -0.24 -0.56 -0.27 -0.72 -0.32 -0.78 -0.32 -0.84 -0.32 -0.93 -0.33 -1.03 -0.33 -1.12 -0.33 -1.21 -0.33 -1.3 -0.33 -1.34 -0.31 -1.43 -0.31 -1.53 -0.3 -1.6 -0.29 -1.66 -0.27 -1.76 -0.26 -1.83 -0.25 -1.88 -0.22 -1.95 -0.21 -2.02 -0.19 -2.12 -0.17 -2.17 -0.16 -2.23 -0.13 -2.3 -0.11 -2.38 -0.09 -2.43 -0.07 -2.5 -0.05 -2.58 -0.03 -2.62 -0.01 0 0zm-155.76 -54.62l155.76 0 0 54.62 -155.76 0 -25.39 -27.31 25.39 -27.31zm-25.39 181.18l0 -153.87 50.79 0 0 153.87 -25.39 27.31 -25.39 -27.31z"/>
      <path id="_1_1" class="fil6" d="M1682.84 2817.57l0 -783.81 449.75 0c78.32,0 130.61,4.12 156.68,12.56 43.5,13.92 75,43.5 94.39,89.17 14.55,34.11 21.82,75.27 21.82,123.49 0,66.25 -11.67,116.03 -34.99,149.34 -11.52,16.08 -25.92,28.43 -43.04,37.24 -8.94,4.5 -22.59,9.6 -40.93,14.9 32.88,12.73 55.61,26.26 68.34,40.77 16.99,19.98 27.59,55.06 31.98,105.63 2.73,34.11 4.55,71.15 5.3,111.33 0.92,33.32 2.59,55.08 5.01,65.45 1.67,9.22 5.76,20.58 11.96,33.92l-242.89 0c-3.19,-23.71 -5.61,-58.21 -7.12,-103.29 -1.36,-41.74 -3.49,-74.29 -6.2,-97.61 -5.01,-41.36 -19.41,-66.05 -43.06,-74.07 -13.94,-3.73 -34.84,-5.89 -63.03,-6.28l-131.82 0 0 281.26 -232.16 0zm232.16 -446.68l154.1 0c27.12,0 45.92,-2.36 56.22,-6.86 21.66,-9.99 32.43,-34.3 32.43,-72.91 0,-30.19 -8.33,-51.15 -24.86,-62.52 -10.91,-7.65 -31.68,-11.57 -62.12,-11.57l-155.76 0 0 153.87z"/>
     </g>
     <g>
      <path class="fil5" d="M2521.36 2033.78l0 783.79 -50.79 0 0 -783.79 25.39 -27.31 25.39 27.31zm206.75 27.31l-232.14 0 0 -54.62 232.14 0 25.39 27.31 -25.39 27.31zm-25.39 756.48l0 -783.79 50.79 0 0 783.79 -25.39 27.31 -25.39 -27.31zm-206.75 -27.31l232.14 0 0 54.62 -232.14 0 -25.39 -27.31 25.39 -27.31z"/>
      <polygon id="_1_2" class="fil6" points="2495.97,2817.57 2495.97,2033.78 2728.11,2033.78 2728.11,2817.57 "/>
     </g>
     <g>
      <path class="fil5" d="M2874.46 2033.76l0 783.81 -50.79 0 0 -783.81 25.39 -27.31 25.39 27.31zm236.91 27.31l-262.3 0 0 -54.62 262.3 0 21.35 12.53 -21.35 42.09zm235.34 416.33l-256.7 -428.86 42.71 -29.57 256.7 428.86 4.04 14.78 -46.75 14.78zm46.75 -443.64l0 428.86 -50.79 0 0 -428.86 25.39 -27.31 25.39 27.31zm206.76 27.31l-232.16 0 0 -54.62 232.16 0 25.39 27.31 -25.39 27.31zm-25.39 756.5l0 -783.81 50.79 0 0 783.81 -25.39 27.31 -25.39 -27.31zm-229.34 -27.31l254.74 0 0 54.62 -254.74 0 -21.11 -12.13 21.11 -42.49zm-243.16 -412.79l264.26 424.92 -42.21 30.37 -264.26 -424.92 -4.29 -15.18 46.5 -15.18zm-46.5 440.1l0 -424.92 50.79 0 0 424.92 -25.39 27.31 -25.39 -27.31zm-206.76 -27.31l232.16 0 0 54.62 -232.16 0 -25.39 -27.31 25.39 -27.31z"/>
      <polygon id="_1_3" class="fil6" points="2849.07,2817.57 2849.07,2033.76 3111.37,2033.76 3368.07,2462.62 3368.07,2033.76 3600.22,2033.76 3600.22,2817.57 3345.49,2817.57 3081.23,2392.65 3081.23,2817.57 "/>
     </g>
     <g>
      <path class="fil5" d="M3744.12 2033.76l0 783.81 -50.79 0 0 -783.81 25.39 -27.31 25.39 27.31zm206.77 27.31l-232.16 0 0 -54.62 232.16 0 25.39 27.31 -25.39 27.31zm-25.39 268.46l0 -295.77 50.79 0 0 295.77 -6.13 17.8 -44.66 -17.8zm280.87 -277.97l-236.22 295.77 -38.53 -35.59 236.22 -295.77 19.26 -9.51 19.26 45.1zm295.93 9.51l-315.19 0 0 -54.62 315.19 0 18.25 46.3 -18.25 8.32zm-269.94 233.39l251.69 -279.69 36.49 37.98 -251.69 279.69 -40.31 -5.47 3.81 -32.52zm263.34 536.63l-267.16 -504.11 44.12 -27.05 267.16 504.11 -22.06 40.83 -22.06 -13.79zm-271.32 -40.83l293.38 0 0 54.62 -293.38 0 -22.29 -14.22 22.29 -40.4zm-145.15 -315.45l167.43 329.67 -44.58 26.18 -167.43 -329.67 3.1 -30.99 41.47 4.8zm-147.53 126.7l106.06 -131.51 38.37 35.79 -106.06 131.51 -44.58 -17.89 6.21 -17.89zm-6.21 216.05l0 -198.16 50.79 0 0 198.16 -25.39 27.31 -25.39 -27.31zm-206.77 -27.31l232.16 0 0 54.62 -232.16 0 -25.39 -27.31 25.39 -27.31z"/>
      <polygon id="_1_4" class="fil6" points="3718.72,2817.57 3718.72,2033.76 3950.89,2033.76 3950.89,2329.53 4187.1,2033.76 4502.29,2033.76 4250.6,2313.45 4517.76,2817.57 4224.38,2817.57 4056.95,2487.9 3950.89,2619.41 3950.89,2817.57 "/>
     </g>
     <g>
      <path class="fil5" d="M5165.14 2028.2l-22.15 49.15 0.06 0.03 -4.96 -2.5 -5.06 -2.43 -5.17 -2.35 -5.29 -2.28 -5.4 -2.21 -5.5 -2.13 -5.63 -2.05 -5.73 -1.99 -5.85 -1.9 -5.96 -1.83 -6.07 -1.75 -6.18 -1.67 -6.3 -1.59 -6.42 -1.52 -6.52 -1.43 -6.64 -1.35 -6.75 -1.28 -6.85 -1.19 -6.98 -1.11 -7.09 -1.03 -7.21 -0.95 -7.31 -0.87 -7.42 -0.79 -7.53 -0.71 -7.65 -0.62 -7.77 -0.54 -7.88 -0.46 -7.98 -0.38 -8.1 -0.29 -8.21 -0.21 -8.32 -0.13 -8.43 -0.04 0 -54.62 8.91 0.04 8.81 0.13 8.71 0.22 8.61 0.31 8.51 0.4 8.41 0.49 8.3 0.58 8.21 0.67 8.12 0.76 8.02 0.85 7.92 0.95 7.81 1.03 7.72 1.13 7.63 1.22 7.53 1.31 7.43 1.4 7.33 1.49 7.24 1.6 7.12 1.68 7.03 1.78 6.94 1.88 6.85 1.97 6.74 2.07 6.65 2.17 6.55 2.26 6.45 2.36 6.36 2.46 6.26 2.56 6.15 2.65 6.06 2.76 5.96 2.86 5.86 2.96 0.06 0.03zm163.97 185.75l-47.31 19.86 0.01 0.02 -2.43 -6.48 -2.55 -6.36 -2.67 -6.25 -2.79 -6.14 -2.91 -6.04 -3.02 -5.92 -3.15 -5.83 -3.27 -5.72 -3.38 -5.61 -3.51 -5.51 -3.63 -5.41 -3.75 -5.3 -3.87 -5.21 -4 -5.11 -4.11 -5.01 -4.24 -4.9 -4.37 -4.82 -4.5 -4.72 -4.61 -4.62 -4.75 -4.53 -4.88 -4.44 -5.01 -4.34 -5.14 -4.25 -5.26 -4.15 -5.4 -4.06 -5.54 -3.97 -5.67 -3.87 -5.8 -3.77 -5.95 -3.68 -6.08 -3.59 -6.21 -3.49 -6.35 -3.39 22.15 -49.15 7.26 3.88 7.13 4.01 7 4.13 6.87 4.25 6.75 4.39 6.6 4.51 6.47 4.63 6.34 4.76 6.21 4.89 6.07 5.01 5.93 5.14 5.79 5.26 5.65 5.39 5.52 5.52 5.36 5.64 5.23 5.76 5.09 5.9 4.94 6.02 4.8 6.14 4.65 6.26 4.51 6.38 4.36 6.5 4.21 6.61 4.07 6.74 3.91 6.85 3.77 6.96 3.62 7.09 3.47 7.19 3.32 7.31 3.17 7.41 3.02 7.53 2.87 7.64 0.01 0.02zm31.43 211.43l-50.79 0 0 0 -0.02 -7.2 -0.09 -7.12 -0.14 -7.04 -0.2 -6.96 -0.25 -6.89 -0.31 -6.81 -0.36 -6.73 -0.42 -6.65 -0.47 -6.57 -0.53 -6.51 -0.58 -6.41 -0.64 -6.34 -0.69 -6.26 -0.75 -6.18 -0.8 -6.12 -0.85 -6.02 -0.91 -5.95 -0.96 -5.87 -1.02 -5.79 -1.07 -5.72 -1.12 -5.63 -1.18 -5.56 -1.22 -5.48 -1.28 -5.38 -1.34 -5.33 -1.38 -5.25 -1.44 -5.16 -1.49 -5.08 -1.54 -5.01 -1.59 -4.93 -1.64 -4.85 -1.69 -4.77 47.31 -19.86 1.97 5.55 1.91 5.63 1.84 5.7 1.77 5.76 1.71 5.83 1.64 5.9 1.57 5.96 1.51 6.02 1.46 6.11 1.38 6.18 1.31 6.23 1.26 6.31 1.19 6.36 1.13 6.45 1.06 6.51 1 6.58 0.94 6.64 0.88 6.7 0.82 6.78 0.76 6.85 0.69 6.91 0.63 6.98 0.57 7.03 0.51 7.12 0.45 7.18 0.39 7.24 0.33 7.32 0.27 7.38 0.21 7.45 0.15 7.52 0.09 7.59 0.03 7.65 0 0zm-101.74 326.06l-35.5 -39.05 0.13 -0.13 5.19 -5.57 5.03 -5.76 4.87 -5.97 4.71 -6.16 4.55 -6.38 4.4 -6.59 4.24 -6.8 4.09 -7.01 3.93 -7.23 3.77 -7.45 3.61 -7.67 3.46 -7.89 3.3 -8.12 3.14 -8.35 2.98 -8.57 2.82 -8.8 2.66 -9.04 2.49 -9.26 2.33 -9.51 2.17 -9.74 2 -9.96 1.82 -10.2 1.66 -10.43 1.48 -10.66 1.31 -10.91 1.15 -11.13 0.97 -11.37 0.8 -11.61 0.62 -11.83 0.44 -12.08 0.27 -12.3 0.09 -12.53 50.79 0 -0.09 13.37 -0.29 13.18 -0.47 12.96 -0.67 12.77 -0.86 12.56 -1.05 12.36 -1.25 12.16 -1.44 11.95 -1.64 11.75 -1.83 11.55 -2.04 11.35 -2.23 11.15 -2.43 10.94 -2.63 10.75 -2.84 10.54 -3.04 10.34 -3.24 10.14 -3.45 9.93 -3.66 9.71 -3.86 9.51 -4.08 9.31 -4.29 9.09 -4.5 8.88 -4.71 8.66 -4.92 8.44 -5.13 8.23 -5.35 8.01 -5.56 7.78 -5.77 7.55 -5.98 7.32 -6.18 7.09 -6.39 6.85 0.13 -0.13zm-35.5 -39.05l0.13 -0.13 -0.18 0.18 0.05 -0.05zm-127.84 136.86l-11.58 -53.18 -0.05 0.01 4.92 -1.29 4.88 -1.38 4.85 -1.47 4.8 -1.55 4.77 -1.63 4.74 -1.72 4.67 -1.79 4.65 -1.89 4.62 -1.97 4.57 -2.05 4.54 -2.14 4.51 -2.22 4.46 -2.3 4.43 -2.39 4.4 -2.48 4.36 -2.56 4.33 -2.65 4.29 -2.73 4.26 -2.82 4.22 -2.9 4.19 -3 4.16 -3.08 4.13 -3.17 4.1 -3.26 4.06 -3.34 4.04 -3.44 4 -3.52 3.96 -3.61 3.93 -3.7 3.91 -3.8 3.87 -3.88 3.84 -3.97 35.5 39.05 -4.41 4.57 -4.46 4.47 -4.5 4.37 -4.55 4.28 -4.6 4.19 -4.65 4.09 -4.68 3.99 -4.74 3.9 -4.78 3.8 -4.82 3.7 -4.87 3.61 -4.92 3.51 -4.97 3.42 -5 3.31 -5.05 3.22 -5.09 3.11 -5.14 3.02 -5.18 2.91 -5.22 2.82 -5.28 2.72 -5.31 2.61 -5.34 2.51 -5.4 2.42 -5.43 2.32 -5.47 2.22 -5.53 2.12 -5.55 2.01 -5.59 1.92 -5.64 1.81 -5.67 1.72 -5.72 1.62 -5.75 1.51 -0.05 0.01zm-173.09 20.31l0 -54.62 0 0 5.4 -0.02 5.37 -0.05 5.36 -0.1 5.33 -0.13 5.31 -0.16 5.29 -0.2 5.25 -0.24 5.23 -0.27 5.22 -0.32 5.2 -0.35 5.18 -0.39 5.14 -0.42 5.12 -0.46 5.1 -0.49 5.08 -0.54 5.05 -0.57 5.04 -0.61 5.02 -0.64 4.98 -0.68 4.96 -0.72 4.96 -0.76 4.92 -0.79 4.9 -0.83 4.87 -0.87 4.85 -0.9 4.84 -0.94 4.81 -0.98 4.79 -1.01 4.76 -1.05 4.75 -1.09 4.72 -1.12 4.69 -1.17 11.58 53.18 -5.1 1.26 -5.12 1.22 -5.13 1.18 -5.16 1.14 -5.18 1.1 -5.2 1.06 -5.21 1.01 -5.24 0.98 -5.26 0.93 -5.28 0.9 -5.3 0.85 -5.3 0.81 -5.34 0.78 -5.37 0.73 -5.37 0.69 -5.4 0.65 -5.42 0.62 -5.44 0.57 -5.46 0.53 -5.48 0.49 -5.5 0.45 -5.52 0.41 -5.54 0.37 -5.56 0.33 -5.59 0.3 -5.61 0.26 -5.62 0.21 -5.65 0.18 -5.66 0.13 -5.68 0.1 -5.71 0.06 -5.72 0.02 0 0zm-242.83 -47l22.03 -49.21 0 0 4.94 2.49 5.06 2.42 5.19 2.35 5.33 2.28 5.44 2.2 5.56 2.13 5.7 2.05 5.83 1.98 5.96 1.9 6.08 1.83 6.2 1.75 6.33 1.67 6.46 1.59 6.59 1.52 6.71 1.44 6.84 1.36 6.97 1.28 7.09 1.2 7.22 1.12 7.35 1.04 7.48 0.95 7.6 0.87 7.72 0.79 7.84 0.71 7.98 0.62 8.11 0.54 8.23 0.46 8.35 0.38 8.47 0.29 8.6 0.21 8.73 0.13 8.85 0.04 0 54.62 -9.3 -0.04 -9.19 -0.13 -9.07 -0.22 -8.96 -0.31 -8.85 -0.4 -8.74 -0.49 -8.62 -0.58 -8.52 -0.66 -8.42 -0.76 -8.3 -0.85 -8.19 -0.95 -8.07 -1.03 -7.96 -1.12 -7.86 -1.21 -7.76 -1.31 -7.64 -1.4 -7.53 -1.49 -7.43 -1.59 -7.3 -1.68 -7.2 -1.77 -7.1 -1.88 -6.99 -1.97 -6.87 -2.07 -6.76 -2.16 -6.66 -2.26 -6.54 -2.36 -6.45 -2.46 -6.33 -2.57 -6.21 -2.66 -6.11 -2.76 -6 -2.87 -5.89 -2.97 0 0zm-164.02 -185.77l47.31 -19.87 -0.02 -0.05 2.46 6.51 2.58 6.4 2.7 6.3 2.81 6.18 2.93 6.07 3.04 5.95 3.17 5.84 3.28 5.74 3.4 5.63 3.52 5.53 3.63 5.42 3.75 5.31 3.88 5.22 4 5.12 4.11 5.01 4.24 4.9 4.37 4.82 4.49 4.72 4.61 4.62 4.74 4.51 4.87 4.43 5 4.33 5.12 4.23 5.25 4.13 5.39 4.04 5.52 3.94 5.65 3.84 5.79 3.75 5.91 3.65 6.05 3.55 6.19 3.46 6.32 3.35 -22.03 49.21 -7.25 -3.85 -7.11 -3.97 -6.99 -4.1 -6.85 -4.23 -6.72 -4.35 -6.59 -4.49 -6.46 -4.61 -6.33 -4.74 -6.2 -4.88 -6.06 -5.01 -5.92 -5.12 -5.78 -5.26 -5.65 -5.39 -5.52 -5.52 -5.36 -5.64 -5.23 -5.76 -5.09 -5.9 -4.95 -6.02 -4.8 -6.14 -4.66 -6.26 -4.52 -6.39 -4.37 -6.52 -4.22 -6.63 -4.08 -6.75 -3.93 -6.87 -3.79 -6.99 -3.64 -7.11 -3.49 -7.22 -3.34 -7.34 -3.19 -7.43 -3.04 -7.55 -2.9 -7.67 -0.02 -0.05zm0.02 0.05l0.05 0.15 -0.07 -0.2 0.02 0.05zm-31.46 -210.9l50.79 0 0 0 0.02 7.16 0.09 7.08 0.14 7 0.2 6.93 0.25 6.86 0.31 6.78 0.36 6.7 0.42 6.62 0.47 6.55 0.53 6.47 0.58 6.39 0.64 6.32 0.69 6.25 0.75 6.16 0.8 6.08 0.86 6.01 0.91 5.94 0.96 5.86 1.02 5.77 1.07 5.7 1.12 5.62 1.17 5.54 1.23 5.47 1.29 5.4 1.33 5.31 1.39 5.23 1.44 5.16 1.49 5.08 1.54 5.01 1.59 4.92 1.64 4.85 1.69 4.77 -47.31 19.87 -1.97 -5.55 -1.91 -5.63 -1.84 -5.7 -1.77 -5.75 -1.71 -5.83 -1.64 -5.89 -1.58 -5.96 -1.51 -6.03 -1.44 -6.08 -1.38 -6.16 -1.32 -6.23 -1.26 -6.29 -1.19 -6.36 -1.13 -6.43 -1.07 -6.49 -1 -6.55 -0.94 -6.63 -0.88 -6.69 -0.82 -6.76 -0.75 -6.82 -0.7 -6.89 -0.63 -6.96 -0.57 -7.01 -0.51 -7.09 -0.45 -7.15 -0.39 -7.22 -0.33 -7.29 -0.27 -7.34 -0.21 -7.41 -0.15 -7.49 -0.09 -7.56 -0.03 -7.61 0 0zm101.77 -327.28l35.42 39.15 -0.03 0.03 -5.19 5.61 -5.03 5.8 -4.87 6 -4.71 6.2 -4.56 6.42 -4.4 6.63 -4.24 6.83 -4.08 7.05 -3.93 7.27 -3.77 7.48 -3.62 7.71 -3.46 7.94 -3.3 8.16 -3.14 8.38 -2.98 8.62 -2.82 8.84 -2.66 9.07 -2.49 9.31 -2.33 9.54 -2.16 9.77 -2 10.01 -1.83 10.24 -1.65 10.47 -1.49 10.71 -1.31 10.94 -1.14 11.18 -0.97 11.4 -0.79 11.64 -0.62 11.88 -0.44 12.11 -0.27 12.34 -0.09 12.57 -50.79 0 0.09 -13.41 0.29 -13.21 0.48 -13 0.67 -12.79 0.86 -12.6 1.06 -12.39 1.24 -12.19 1.44 -12 1.64 -11.79 1.83 -11.58 2.03 -11.39 2.23 -11.18 2.43 -10.98 2.63 -10.78 2.84 -10.58 3.04 -10.38 3.24 -10.17 3.45 -9.96 3.65 -9.76 3.87 -9.55 4.07 -9.33 4.28 -9.13 4.5 -8.92 4.7 -8.69 4.92 -8.49 5.14 -8.27 5.34 -8.03 5.55 -7.82 5.77 -7.59 5.97 -7.36 6.18 -7.12 6.39 -6.89 -0.03 0.03zm35.42 39.15l-0.03 0.03 0.42 -0.44 -0.39 0.41zm127.98 -136.36l11.39 53.23 -0.1 0.02 -4.85 1.23 -4.81 1.31 -4.78 1.4 -4.75 1.49 -4.71 1.57 -4.68 1.66 -4.65 1.75 -4.6 1.83 -4.58 1.92 -4.54 2 -4.5 2.1 -4.49 2.19 -4.44 2.27 -4.41 2.36 -4.39 2.45 -4.35 2.54 -4.33 2.63 -4.3 2.71 -4.25 2.8 -4.24 2.9 -4.21 2.99 -4.18 3.08 -4.14 3.17 -4.12 3.26 -4.1 3.36 -4.06 3.45 -4.04 3.54 -4.01 3.64 -3.98 3.73 -3.95 3.83 -3.93 3.92 -3.9 4.01 -35.42 -39.15 4.47 -4.6 4.5 -4.5 4.55 -4.41 4.59 -4.3 4.64 -4.21 4.68 -4.11 4.72 -4 4.76 -3.9 4.81 -3.81 4.86 -3.71 4.89 -3.61 4.93 -3.5 4.97 -3.41 5.03 -3.31 5.06 -3.2 5.09 -3.1 5.15 -3 5.17 -2.89 5.23 -2.8 5.27 -2.69 5.29 -2.59 5.34 -2.48 5.39 -2.38 5.42 -2.28 5.46 -2.17 5.49 -2.07 5.53 -1.97 5.57 -1.86 5.6 -1.75 5.64 -1.66 5.68 -1.55 5.71 -1.44 -0.1 0.02zm11.39 53.23l-0.1 0.02 0.36 -0.09 -0.26 0.06zm168.27 -73.52l0 54.62 0 0 -5.75 0.02 -5.7 0.05 -5.68 0.09 -5.65 0.13 -5.61 0.17 -5.59 0.2 -5.55 0.24 -5.52 0.28 -5.49 0.32 -5.47 0.35 -5.43 0.39 -5.39 0.42 -5.36 0.46 -5.34 0.5 -5.3 0.53 -5.27 0.57 -5.24 0.61 -5.22 0.64 -5.16 0.68 -5.15 0.72 -5.13 0.76 -5.08 0.79 -5.06 0.83 -5.02 0.87 -4.99 0.91 -4.97 0.94 -4.93 0.98 -4.9 1.01 -4.87 1.06 -4.85 1.09 -4.81 1.12 -4.78 1.17 -11.39 -53.23 5.19 -1.26 5.21 -1.22 5.24 -1.18 5.27 -1.13 5.3 -1.1 5.32 -1.06 5.35 -1.01 5.38 -0.98 5.41 -0.93 5.43 -0.89 5.47 -0.85 5.48 -0.81 5.52 -0.78 5.56 -0.73 5.56 -0.69 5.59 -0.65 5.63 -0.61 5.66 -0.57 5.68 -0.53 5.71 -0.49 5.74 -0.45 5.76 -0.41 5.79 -0.37 5.82 -0.33 5.85 -0.29 5.88 -0.26 5.9 -0.22 5.94 -0.18 5.96 -0.13 5.99 -0.1 6.03 -0.05 6.05 -0.02 0 0zm-102.05 296.88l-38.97 -35.03 0.18 -0.23 3.06 -3.75 3.14 -3.64 3.22 -3.54 3.3 -3.42 3.38 -3.32 3.46 -3.21 3.53 -3.08 3.6 -2.97 3.69 -2.86 3.76 -2.74 3.82 -2.61 3.9 -2.5 3.97 -2.38 4.03 -2.24 4.09 -2.13 4.16 -2 4.24 -1.89 4.28 -1.75 4.33 -1.63 4.4 -1.5 4.44 -1.38 4.5 -1.26 4.57 -1.13 4.61 -1.01 4.66 -0.88 4.7 -0.77 4.74 -0.64 4.8 -0.53 4.85 -0.41 4.89 -0.29 4.93 -0.17 4.98 -0.06 0 54.62 -3.89 0.04 -3.81 0.13 -3.74 0.22 -3.66 0.31 -3.6 0.4 -3.53 0.48 -3.46 0.56 -3.39 0.65 -3.32 0.73 -3.24 0.8 -3.19 0.89 -3.13 0.97 -3.06 1.05 -3.01 1.13 -2.94 1.2 -2.87 1.28 -2.82 1.36 -2.78 1.44 -2.72 1.52 -2.66 1.59 -2.62 1.68 -2.59 1.77 -2.52 1.84 -2.48 1.93 -2.45 2.02 -2.4 2.1 -2.35 2.18 -2.31 2.27 -2.28 2.37 -2.24 2.46 -2.2 2.56 -2.17 2.65 0.18 -0.23zm-38.97 -35.03l-0.02 0.02 0.2 -0.25 -0.18 0.23zm2.3 180l-50.79 0 0 0 0.05 -7.07 0.13 -6.96 0.22 -6.87 0.31 -6.78 0.4 -6.7 0.49 -6.59 0.58 -6.5 0.67 -6.42 0.77 -6.32 0.86 -6.23 0.95 -6.15 1.05 -6.06 1.14 -5.96 1.24 -5.87 1.34 -5.79 1.43 -5.68 1.53 -5.6 1.63 -5.5 1.73 -5.43 1.83 -5.32 1.93 -5.23 2.04 -5.14 2.14 -5.03 2.25 -4.94 2.35 -4.85 2.46 -4.75 2.56 -4.63 2.66 -4.53 2.78 -4.44 2.88 -4.32 2.99 -4.22 3.1 -4.11 38.97 35.03 -2.13 2.83 -2.08 2.93 -2.02 3.03 -1.95 3.12 -1.9 3.24 -1.85 3.34 -1.77 3.42 -1.72 3.54 -1.66 3.66 -1.6 3.77 -1.53 3.87 -1.48 3.99 -1.42 4.11 -1.34 4.21 -1.28 4.34 -1.22 4.45 -1.15 4.57 -1.08 4.67 -1.01 4.81 -0.95 4.92 -0.87 5.03 -0.8 5.14 -0.72 5.28 -0.65 5.39 -0.58 5.5 -0.5 5.63 -0.43 5.74 -0.35 5.86 -0.27 5.97 -0.2 6.1 -0.12 6.21 -0.04 6.32 0 0zm36.75 149.19l-39.13 34.82 -0 -0.01 -3.1 -4.16 -2.99 -4.28 -2.88 -4.38 -2.78 -4.51 -2.66 -4.6 -2.57 -4.72 -2.46 -4.83 -2.35 -4.92 -2.24 -5.03 -2.13 -5.13 -2.04 -5.24 -1.93 -5.33 -1.83 -5.42 -1.72 -5.53 -1.62 -5.62 -1.53 -5.72 -1.42 -5.81 -1.33 -5.92 -1.23 -6 -1.14 -6.09 -1.04 -6.21 -0.95 -6.3 -0.85 -6.39 -0.76 -6.48 -0.67 -6.59 -0.58 -6.67 -0.49 -6.77 -0.4 -6.88 -0.31 -6.98 -0.22 -7.07 -0.13 -7.16 -0.05 -7.27 50.79 0 0.04 6.55 0.12 6.43 0.2 6.31 0.27 6.18 0.35 6.06 0.43 5.94 0.51 5.83 0.58 5.69 0.66 5.57 0.73 5.45 0.8 5.32 0.87 5.19 0.95 5.08 1.02 4.96 1.08 4.82 1.16 4.71 1.22 4.59 1.29 4.46 1.35 4.32 1.42 4.22 1.48 4.1 1.54 3.97 1.61 3.86 1.67 3.74 1.72 3.62 1.78 3.5 1.84 3.39 1.91 3.3 1.95 3.16 2.02 3.07 2.07 2.96 2.13 2.85 -0 -0.01zm95.44 42.82l0 54.62 0 0 -5.16 -0.05 -5.11 -0.18 -5.05 -0.29 -5 -0.41 -4.95 -0.53 -4.9 -0.65 -4.83 -0.77 -4.79 -0.89 -4.73 -1.02 -4.67 -1.13 -4.61 -1.26 -4.56 -1.39 -4.51 -1.52 -4.43 -1.64 -4.37 -1.77 -4.32 -1.9 -4.24 -2.02 -4.17 -2.15 -4.11 -2.29 -4.02 -2.4 -3.96 -2.54 -3.88 -2.66 -3.79 -2.78 -3.72 -2.9 -3.64 -3.03 -3.55 -3.15 -3.46 -3.26 -3.38 -3.38 -3.3 -3.5 -3.2 -3.6 -3.12 -3.72 -3.03 -3.83 39.13 -34.82 2.09 2.64 2.14 2.55 2.19 2.46 2.23 2.37 2.28 2.28 2.33 2.19 2.37 2.1 2.41 2.01 2.48 1.93 2.53 1.86 2.57 1.77 2.63 1.68 2.7 1.62 2.74 1.53 2.82 1.45 2.88 1.38 2.94 1.29 3.02 1.22 3.08 1.14 3.15 1.06 3.22 0.98 3.3 0.9 3.39 0.83 3.45 0.74 3.52 0.66 3.62 0.58 3.68 0.49 3.77 0.4 3.86 0.31 3.94 0.23 4.01 0.14 4.09 0.05 0 0zm95.38 -42.92l38.97 35.03 -0.01 0.01 -3.05 3.81 -3.14 3.7 -3.22 3.6 -3.3 3.48 -3.39 3.37 -3.48 3.26 -3.55 3.13 -3.64 3.03 -3.72 2.9 -3.79 2.78 -3.88 2.66 -3.95 2.53 -4.02 2.4 -4.1 2.28 -4.16 2.15 -4.23 2.03 -4.31 1.9 -4.35 1.77 -4.42 1.64 -4.49 1.52 -4.55 1.39 -4.59 1.26 -4.66 1.14 -4.72 1.02 -4.77 0.89 -4.82 0.77 -4.88 0.65 -4.94 0.53 -4.97 0.41 -5.03 0.29 -5.09 0.18 -5.14 0.05 0 -54.62 4.06 -0.05 3.98 -0.14 3.91 -0.22 3.83 -0.31 3.74 -0.4 3.66 -0.49 3.59 -0.57 3.51 -0.66 3.42 -0.74 3.37 -0.82 3.29 -0.9 3.21 -0.98 3.13 -1.06 3.08 -1.14 3.01 -1.22 2.93 -1.29 2.88 -1.38 2.82 -1.45 2.75 -1.53 2.7 -1.62 2.64 -1.69 2.58 -1.77 2.54 -1.86 2.49 -1.94 2.43 -2.02 2.4 -2.12 2.35 -2.2 2.3 -2.28 2.26 -2.38 2.21 -2.47 2.17 -2.57 2.13 -2.66 -0.01 0.01zm36.67 -146.15l50.79 0 0 0 -0.05 7.13 -0.13 7.03 -0.22 6.94 -0.31 6.85 -0.4 6.76 -0.49 6.65 -0.58 6.56 -0.67 6.47 -0.77 6.38 -0.85 6.28 -0.95 6.19 -1.04 6.1 -1.14 6 -1.23 5.91 -1.34 5.83 -1.43 5.72 -1.53 5.63 -1.63 5.53 -1.73 5.46 -1.83 5.35 -1.93 5.25 -2.04 5.17 -2.14 5.06 -2.25 4.97 -2.35 4.85 -2.46 4.77 -2.57 4.65 -2.66 4.54 -2.79 4.46 -2.89 4.34 -2.99 4.22 -3.1 4.12 -38.97 -35.03 2.13 -2.82 2.08 -2.93 2.01 -3.02 1.95 -3.12 1.91 -3.25 1.84 -3.34 1.78 -3.44 1.72 -3.57 1.66 -3.66 1.6 -3.79 1.54 -3.89 1.48 -4.02 1.42 -4.13 1.35 -4.24 1.28 -4.37 1.22 -4.49 1.15 -4.61 1.08 -4.72 1.01 -4.85 0.95 -4.97 0.87 -5.08 0.8 -5.2 0.73 -5.33 0.66 -5.45 0.58 -5.56 0.5 -5.69 0.43 -5.81 0.35 -5.92 0.27 -6.04 0.2 -6.17 0.12 -6.28 0.04 -6.39 0 0zm-134.32 -190.25l0 -54.62 0 0 10.87 0.24 10.61 0.71 10.37 1.19 10.12 1.69 9.86 2.2 9.59 2.71 9.31 3.23 9.04 3.77 8.73 4.3 8.41 4.84 8.08 5.37 7.72 5.91 7.34 6.41 6.96 6.92 6.56 7.4 6.16 7.88 5.74 8.33 5.32 8.76 4.92 9.17 4.5 9.58 4.1 9.96 3.71 10.35 3.33 10.73 2.94 11.09 2.57 11.46 2.22 11.84 1.86 12.21 1.51 12.57 1.17 12.94 0.83 13.32 0.49 13.7 0.16 14.08 -50.79 0 -0.15 -12.69 -0.44 -12.22 -0.73 -11.75 -1.02 -11.28 -1.29 -10.79 -1.57 -10.32 -1.84 -9.84 -2.1 -9.36 -2.35 -8.87 -2.6 -8.39 -2.84 -7.92 -3.07 -7.46 -3.29 -7 -3.5 -6.54 -3.72 -6.12 -3.93 -5.7 -4.14 -5.3 -4.35 -4.92 -4.58 -4.55 -4.82 -4.21 -5.06 -3.87 -5.34 -3.55 -5.63 -3.24 -5.92 -2.92 -6.25 -2.61 -6.6 -2.29 -6.94 -1.96 -7.3 -1.62 -7.67 -1.29 -8.04 -0.93 -8.42 -0.56 -8.79 -0.19 0 0z"/>
      <path id="_1_5" class="fil6" d="M4928.89 2008.48c93.04,0 168.05,14.7 225.18,44.29 73.33,38.22 123.8,95.26 151.38,171.11 19.85,54.69 29.69,121.92 29.69,201.5 0,139.36 -31.37,241.47 -94.1,306.54 -43.79,46.05 -94.25,76.24 -151.38,90.75 -52.12,13.12 -107.89,19.6 -167.3,19.6 -97.42,0 -174.71,-14.7 -231.82,-44.29 -73.06,-37.84 -123.51,-94.87 -151.38,-171.11 -19.87,-54.69 -29.7,-121.72 -29.7,-200.9 0,-139.74 31.35,-242.26 94.09,-307.71 44.4,-46.46 94.87,-76.45 151.38,-90.17 53.04,-13.12 110.92,-19.6 173.96,-19.6zm-8.79 199.92c-47.59,0 -85.16,17.45 -112.74,52.14 -28.34,36.45 -42.58,90.56 -42.58,162.48 0,74.29 14.24,129.75 42.58,166.6 26.99,35.08 65.31,52.72 115,52.72 49.41,0 87.59,-17.64 114.87,-52.72 28.34,-36.47 42.58,-90.94 42.58,-163.66 0,-145.04 -53.19,-217.56 -159.71,-217.56z"/>
     </g>
    </g>
    <polygon class="fil3" points="19.9,2886.45 5327.32,2886.45 5327.32,3233.68 19.9,3233.68 "/>
    <path class="fil7" d="M98.06 3139.88l120.34 0 0 -22.92 -94.02 0 0 -189.93 -26.32 0 0 212.85zm227.49 -53.78l0 1.13c-0.05,8.07 -1.19,14.92 -3.56,20.62 -2.33,5.67 -5.57,10.01 -9.81,13.02 -4.23,3.03 -9.13,4.54 -14.83,4.57 -7.56,0 -13.75,-2.08 -18.44,-6.26 -4.68,-4.21 -8.14,-10.52 -10.34,-18.96 -2.15,-8.49 -3.24,-19.12 -3.19,-31.94l0 -7.07 84.61 0c0.15,-2.41 0.26,-4.77 0.26,-7.03 0.05,-2.31 0.05,-4.57 0.05,-6.84 0.07,-23.77 -4.34,-41.55 -13.2,-53.36 -8.88,-11.79 -22.58,-17.69 -41.01,-17.69 -13.1,0 -23.82,3.11 -32.05,9.34 -8.31,6.23 -14.38,15.71 -18.3,28.41 -3.85,12.68 -5.79,28.67 -5.74,48.02 -0.05,27.69 4.38,48.3 13.43,61.85 9,13.54 23.04,20.28 42.05,20.23 17.33,-0.04 30.6,-5.05 39.89,-14.9 9.3,-9.87 14.05,-24.26 14.33,-43.12l-24.14 0zm-60.16 -43.03c-0.05,-16.27 2.51,-28.41 7.69,-36.41 5.11,-8.02 13.05,-12.03 23.65,-12 9.4,0 16.51,3.68 21.31,11.05 4.79,7.35 7.21,18.4 7.21,33.12l0 4.24 -59.86 0zm231.89 97.08l0 -16.98c-0.8,0.14 -1.51,0.28 -2.15,0.37 -0.68,0.14 -1.29,0.2 -1.94,0.2 -3.59,0.04 -6.2,-0.9 -7.87,-2.75 -1.67,-1.83 -2.47,-4.8 -2.47,-8.87l0 -93.12c0.07,-14.76 -3.8,-25.61 -11.64,-32.51 -7.89,-6.88 -20.04,-10.33 -36.62,-10.24 -11.84,-0.04 -21.62,1.62 -29.24,4.87 -7.56,3.29 -13.22,8.34 -16.92,15.28 -3.72,6.88 -5.71,15.71 -5.86,26.54l23.19 0 0 -2.81c0,-8.64 2.15,-14.97 6.44,-19.07 4.28,-4.15 10.8,-6.18 19.58,-6.14 8.78,-0.04 15.3,1.37 19.58,4.35 4.28,2.97 6.42,7.74 6.42,14.34l0 14.72c0,2.75 -0.41,5 -1.4,6.79 -0.94,1.79 -2.45,3.36 -4.6,4.63 -2.15,1.32 -5.03,2.55 -8.5,3.73 -3.56,1.23 -7.89,2.6 -13.07,4.1 -8.93,2.61 -16.65,5.3 -23.24,8.07 -6.58,2.73 -12.01,6 -16.29,9.71 -4.34,3.7 -7.53,8.31 -9.66,13.83 -2.1,5.52 -3.14,12.37 -3.14,20.48 0.05,9.39 1.67,17.31 4.84,23.92 3.2,6.56 7.79,11.56 13.78,15 6.08,3.48 13.29,5.19 21.79,5.23 9.76,-0.04 18.23,-2.16 25.32,-6.45 7.1,-4.26 12.54,-10.49 16.36,-18.74 0.37,7.41 2.55,13.07 6.52,17 3.97,3.9 9.4,5.89 16.34,5.94 2.2,0 4.5,-0.14 6.87,-0.38 2.39,-0.28 4.91,-0.62 7.56,-1.04zm-38.86 -86.06l0 31.44c-0.04,8.14 -1.46,15.09 -4.29,20.84 -2.8,5.81 -6.71,10.24 -11.74,13.3 -5.06,3.06 -10.87,4.57 -17.48,4.63 -7.1,-0.05 -12.61,-2.22 -16.41,-6.51 -3.86,-4.29 -5.79,-10.43 -5.86,-18.4 0,-5.28 0.6,-9.67 1.69,-13.16 1.09,-3.5 2.81,-6.42 5.06,-8.69 2.23,-2.3 5.11,-4.24 8.62,-5.84 3.44,-1.6 7.51,-3.12 12.22,-4.57 4.07,-1.28 7.89,-2.55 11.33,-3.78 3.51,-1.18 6.68,-2.5 9.51,-3.96 2.81,-1.46 5.28,-3.26 7.36,-5.3zm176.43 85.77l0 -212.85 -24.76 0 0 70.19c-1.29,-3.91 -3.75,-7.35 -7.31,-10.38 -3.61,-3.02 -7.99,-5.38 -13.27,-7.07 -5.21,-1.74 -11.02,-2.61 -17.33,-2.64 -11.23,0.04 -20.89,3.01 -29.04,9.01 -8.16,5.95 -14.41,14.72 -18.81,26.32 -4.38,11.61 -6.63,25.86 -6.68,42.8 0.05,19.33 2.2,35.52 6.53,48.53 4.34,13.03 10.61,22.8 18.89,29.34 8.3,6.56 18.38,9.87 30.35,9.87 6.42,-0.05 12.23,-0.98 17.45,-2.92 5.23,-1.94 9.61,-4.63 13.17,-8.13 3.59,-3.43 6.12,-7.49 7.61,-12.15l0 20.09 23.19 0zm-23.19 -80.67c0.05,14.34 -0.99,26.23 -3.08,35.71 -2.08,9.48 -5.64,16.57 -10.65,21.23 -5.01,4.71 -11.81,7.03 -20.43,7.03 -7.89,0 -14.26,-2.36 -19.1,-7.18 -4.87,-4.77 -8.35,-11.98 -10.56,-21.71 -2.2,-9.71 -3.29,-21.97 -3.22,-36.78 -0.07,-20.25 2.66,-35.39 8.09,-45.49 5.47,-10.1 14.04,-15.09 25.74,-15.09 8.67,0 15.45,2.22 20.31,6.76 4.85,4.52 8.2,11.42 10.14,20.62 1.93,9.24 2.81,20.84 2.76,34.9zm59.84 80.67l25.4 0 0 -159.07 -25.4 0 0 159.07zm0 -183.98l25.4 0 0 -28.86 -25.4 0 0 28.86zm62.67 183.98l24.77 0 0 -107.85c0.05,-7.3 1.57,-13.53 4.55,-18.72 2.97,-5.19 7.14,-9.16 12.54,-11.89 5.37,-2.78 11.67,-4.2 18.95,-4.2 8.47,0 14.68,2.13 18.74,6.42 4.02,4.24 6.07,10.71 6,19.33l0 116.91 24.76 0 0 -115.2c0.12,-10.75 -1.14,-19.63 -3.75,-26.61 -2.56,-6.98 -7,-12.17 -13.28,-15.57 -6.27,-3.39 -14.92,-5.08 -25.9,-5.08 -10.49,0 -19.44,1.93 -26.8,5.75 -7.36,3.87 -13.15,9.67 -17.38,17.45l0 -19.81 -23.21 0 0 159.07zm147.92 14.72l0 0.84c0.05,7.41 2.25,14.02 6.59,19.72 4.26,5.72 10.27,10.24 17.96,13.49 7.67,3.25 16.67,4.96 26.85,4.99 12.57,0 23.32,-2.36 32.2,-7.02 8.94,-4.68 15.72,-11.56 20.49,-20.67 4.75,-9.06 7.09,-20.23 7.14,-33.44l0 -151.72 -23.82 0 0 18.68c-2.71,-7.12 -7.29,-12.65 -13.74,-16.52 -6.47,-3.87 -14.39,-5.81 -23.87,-5.84 -18.32,0 -32.12,6.54 -41.3,19.67 -9.25,13.12 -13.85,32.7 -13.85,58.74 -0.05,29 4.34,50.77 13.1,65.19 8.79,14.48 22.2,21.71 40.17,21.71 9.39,0 17.4,-1.84 23.92,-5.47 6.58,-3.68 11.65,-9.11 15.25,-16.32 0,1.97 0.05,3.63 0.15,4.99 0.1,1.37 0.15,2.5 0.15,3.5 0.07,10.38 -1.09,18.85 -3.39,25.5 -2.35,6.67 -6.01,11.56 -11.02,14.72 -5.06,3.22 -11.64,4.82 -19.75,4.77 -9.08,0 -16.01,-1.71 -20.89,-4.99 -4.79,-3.31 -7.46,-8.16 -7.92,-14.53l-24.45 0zm20.68 -93.97c-0.05,-14.72 1.01,-26.84 3.14,-36.38 2.15,-9.53 5.59,-16.6 10.34,-21.23 4.75,-4.68 11,-6.98 18.79,-6.93 8.3,0 14.99,2.3 20.12,6.88 5.06,4.63 8.71,11.56 11,20.81 2.25,9.29 3.41,20.9 3.34,34.87 0.07,14.34 -0.94,26.28 -2.98,35.76 -2.08,9.51 -5.59,16.64 -10.55,21.4 -4.9,4.72 -11.69,7.09 -20.31,7.09 -8.09,0 -14.57,-2.27 -19.37,-6.81 -4.86,-4.47 -8.3,-11.36 -10.44,-20.56 -2.08,-9.25 -3.14,-20.85 -3.09,-34.9zm207.76 79.24l26.94 0 0 -212.85 -26.94 0 0 212.85zm66.74 0l24.76 0 0 -107.85c0.05,-7.3 1.57,-13.53 4.55,-18.72 2.98,-5.19 7.14,-9.16 12.54,-11.89 5.37,-2.78 11.69,-4.2 18.95,-4.2 8.47,0 14.68,2.13 18.76,6.42 4.01,4.24 6.05,10.71 6,19.33l0 116.91 24.74 0 0 -115.2c0.12,-10.75 -1.14,-19.63 -3.75,-26.61 -2.56,-6.98 -7,-12.17 -13.28,-15.57 -6.27,-3.39 -14.92,-5.08 -25.9,-5.08 -10.49,0 -19.42,1.93 -26.78,5.75 -7.38,3.87 -13.17,9.67 -17.4,17.45l0 -19.81 -23.19 0 0 159.07zm147.28 0l24.77 0 0 -107.85c0.04,-7.3 1.55,-13.53 4.53,-18.72 2.98,-5.19 7.16,-9.16 12.54,-11.89 5.38,-2.78 11.69,-4.2 18.95,-4.2 8.47,0 14.69,2.13 18.76,6.42 4,4.24 6.05,10.71 5.99,19.33l0 116.91 24.76 0 0 -115.2c0.12,-10.75 -1.16,-19.63 -3.77,-26.61 -2.56,-6.98 -6.99,-12.17 -13.26,-15.57 -6.27,-3.39 -14.94,-5.08 -25.9,-5.08 -10.5,0 -19.44,1.93 -26.8,5.75 -7.36,3.87 -13.17,9.67 -17.4,17.45l0 -19.81 -23.19 0 0 159.07zm168.61 -79.54c-0.07,-14.53 0.94,-26.54 3.02,-36.08 2.15,-9.58 5.74,-16.71 10.95,-21.42 5.2,-4.71 12.3,-7.02 21.44,-7.02 8.93,-0.05 15.98,2.25 21.14,6.93 5.18,4.63 8.88,11.7 11.08,21.23 2.18,9.51 3.24,21.65 3.19,36.36 0.05,14.77 -1.04,26.98 -3.24,36.57 -2.23,9.57 -5.96,16.7 -11.13,21.32 -5.21,4.68 -12.22,6.98 -21.04,6.93 -9.05,0.05 -16.16,-2.25 -21.31,-6.93 -5.18,-4.63 -8.81,-11.75 -10.96,-21.32 -2.15,-9.58 -3.2,-21.79 -3.13,-36.57zm-26.32 0c-0.07,19.12 2.08,34.86 6.36,47.28 4.35,12.35 11.02,21.55 20.16,27.55 9.1,5.98 20.84,9 35.22,8.95 14.34,0 26.17,-2.97 35.3,-9.01 9.13,-6.03 15.93,-15.23 20.26,-27.63 4.34,-12.37 6.54,-28.13 6.47,-47.14 0.07,-18.96 -2.13,-34.62 -6.52,-47.07 -4.4,-12.45 -11.18,-21.71 -20.36,-27.83 -9.15,-6.14 -20.84,-9.16 -35.15,-9.16 -21.11,0 -36.67,6.95 -46.74,20.89 -10.09,13.97 -15.06,35.01 -14.99,63.17zm190.2 79.54l26.65 0 48.86 -159.07 -25.68 0 -36.05 124.82 -34.47 -124.82 -26.96 0 47.64 159.07zm214.03 0.28l0 -16.98c-0.78,0.14 -1.52,0.28 -2.13,0.37 -0.68,0.14 -1.31,0.2 -1.96,0.2 -3.6,0.04 -6.2,-0.9 -7.85,-2.75 -1.69,-1.83 -2.49,-4.8 -2.49,-8.87l0 -93.12c0.07,-14.76 -3.78,-25.61 -11.64,-32.51 -7.89,-6.88 -20.04,-10.33 -36.62,-10.24 -11.84,-0.04 -21.62,1.62 -29.22,4.87 -7.58,3.29 -13.22,8.34 -16.94,15.28 -3.71,6.88 -5.71,15.71 -5.86,26.54l23.21 0 0 -2.81c0,-8.64 2.13,-14.97 6.43,-19.07 4.28,-4.15 10.8,-6.18 19.59,-6.14 8.76,-0.04 15.28,1.37 19.56,4.35 4.29,2.97 6.42,7.74 6.42,14.34l0 14.72c0,2.75 -0.41,5 -1.4,6.79 -0.94,1.79 -2.45,3.36 -4.6,4.63 -2.13,1.32 -5.01,2.55 -8.5,3.73 -3.56,1.23 -7.89,2.6 -13.07,4.1 -8.91,2.61 -16.65,5.3 -23.24,8.07 -6.58,2.73 -12.01,6 -16.29,9.71 -4.35,3.7 -7.52,8.31 -9.66,13.83 -2.08,5.52 -3.13,12.37 -3.13,20.48 0.05,9.39 1.67,17.31 4.84,23.92 3.21,6.56 7.81,11.56 13.8,15 6.07,3.48 13.27,5.19 21.79,5.23 9.75,-0.04 18.21,-2.16 25.32,-6.45 7.1,-4.26 12.54,-10.49 16.36,-18.74 0.36,7.41 2.54,13.07 6.52,17 3.97,3.9 9.4,5.89 16.32,5.94 2.22,0 4.52,-0.14 6.87,-0.38 2.39,-0.28 4.9,-0.62 7.56,-1.04zm-38.86 -86.06l0 31.44c-0.04,8.14 -1.47,15.09 -4.28,20.84 -2.81,5.81 -6.73,10.24 -11.76,13.3 -5.06,3.06 -10.85,4.57 -17.48,4.63 -7.1,-0.05 -12.61,-2.22 -16.39,-6.51 -3.88,-4.29 -5.81,-10.43 -5.86,-18.4 0,-5.28 0.58,-9.67 1.67,-13.16 1.09,-3.5 2.83,-6.42 5.06,-8.69 2.23,-2.3 5.13,-4.24 8.62,-5.84 3.46,-1.6 7.53,-3.12 12.22,-4.57 4.07,-1.28 7.89,-2.55 11.33,-3.78 3.51,-1.18 6.68,-2.5 9.51,-3.96 2.83,-1.46 5.28,-3.26 7.36,-5.3zm92.47 52.93l0 -107.83 28.5 0 0 -18.4 -28.5 0 0 -42.46 -24.13 0 0 42.46 -24.45 0 0 18.4 24.45 0 0 118.59c0,8.5 2.79,14.81 8.55,18.96 5.69,4.15 14.31,6.23 25.92,6.23 1.88,0 4.38,-0.05 7.4,-0.19 3.1,-0.09 6.7,-0.23 10.77,-0.37l0 -19.53c-1.09,0.14 -2.13,0.23 -3.06,0.23 -0.95,0.05 -1.77,0.05 -2.57,0.05 -6,0.04 -10.65,-0.25 -13.99,-1 -3.34,-0.71 -5.7,-2.22 -7,-4.52 -1.31,-2.36 -1.94,-5.86 -1.87,-10.62zm48.54 32.84l25.4 0 0 -159.07 -25.4 0 0 159.07zm0 -183.98l25.4 0 0 -28.86 -25.4 0 0 28.86zm84 104.44c-0.05,-14.53 0.94,-26.54 3.02,-36.08 2.15,-9.58 5.74,-16.71 10.97,-21.42 5.18,-4.71 12.28,-7.02 21.42,-7.02 8.94,-0.05 15.98,2.25 21.14,6.93 5.18,4.63 8.88,11.7 11.09,21.23 2.18,9.51 3.22,21.65 3.17,36.36 0.05,14.77 -1.04,26.98 -3.24,36.57 -2.23,9.57 -5.96,16.7 -11.11,21.32 -5.23,4.68 -12.23,6.98 -21.06,6.93 -9.03,0.05 -16.15,-2.25 -21.3,-6.93 -5.18,-4.63 -8.82,-11.75 -10.97,-21.32 -2.15,-9.58 -3.19,-21.79 -3.13,-36.57zm-26.32 0c-0.07,19.12 2.08,34.86 6.35,47.28 4.35,12.35 11.02,21.55 20.16,27.55 9.1,5.98 20.84,9 35.22,8.95 14.35,0 26.17,-2.97 35.3,-9.01 9.13,-6.03 15.93,-15.23 20.26,-27.63 4.35,-12.37 6.54,-28.13 6.47,-47.14 0.07,-18.96 -2.13,-34.62 -6.51,-47.07 -4.41,-12.45 -11.17,-21.71 -20.38,-27.83 -9.15,-6.14 -20.84,-9.16 -35.15,-9.16 -21.11,0 -36.67,6.95 -46.74,20.89 -10.09,13.97 -15.06,35.01 -14.99,63.17zm156.35 79.54l24.77 0 0 -107.85c0.04,-7.3 1.55,-13.53 4.53,-18.72 2.98,-5.19 7.14,-9.16 12.54,-11.89 5.37,-2.78 11.69,-4.2 18.95,-4.2 8.47,0 14.69,2.13 18.76,6.42 4,4.24 6.05,10.71 5.99,19.33l0 116.91 24.76 0 0 -115.2c0.1,-10.75 -1.16,-19.63 -3.77,-26.61 -2.56,-6.98 -6.99,-12.17 -13.26,-15.57 -6.27,-3.39 -14.94,-5.08 -25.92,-5.08 -10.49,0 -19.42,1.93 -26.78,5.75 -7.36,3.87 -13.17,9.67 -17.4,17.45l0 -19.81 -23.19 0 0 159.07zm225.01 0l25.39 0 0 -159.07 -25.39 0 0 159.07zm0 -183.98l25.39 0 0 -28.86 -25.39 0 0 28.86zm62.67 183.98l24.77 0 0 -107.85c0.04,-7.3 1.55,-13.53 4.53,-18.72 2.98,-5.19 7.14,-9.16 12.54,-11.89 5.37,-2.78 11.69,-4.2 18.95,-4.2 8.47,0 14.68,2.13 18.76,6.42 4.01,4.24 6.05,10.71 6,19.33l0 116.91 24.76 0 0 -115.2c0.1,-10.75 -1.16,-19.63 -3.76,-26.61 -2.56,-6.98 -6.99,-12.17 -13.26,-15.57 -6.27,-3.39 -14.94,-5.08 -25.92,-5.08 -10.49,0 -19.42,1.93 -26.78,5.75 -7.36,3.87 -13.17,9.67 -17.4,17.45l0 -19.81 -23.19 0 0 159.07zm227.51 0l26.96 0 0 -103.59 87.73 0 0 103.59 26.95 0 0 -212.85 -26.95 0 0 87.74 -87.73 0 0 -87.74 -26.96 0 0 212.85zm261.98 -53.78l0 1.13c-0.07,8.07 -1.21,14.92 -3.58,20.62 -2.33,5.67 -5.57,10.01 -9.81,13.02 -4.23,3.03 -9.13,4.54 -14.81,4.57 -7.58,0 -13.75,-2.08 -18.45,-6.26 -4.68,-4.21 -8.14,-10.52 -10.34,-18.96 -2.15,-8.49 -3.24,-19.12 -3.19,-31.94l0 -7.07 84.61 0c0.15,-2.41 0.26,-4.77 0.26,-7.03 0.05,-2.31 0.05,-4.57 0.05,-6.84 0.07,-23.77 -4.34,-41.55 -13.21,-53.36 -8.87,-11.79 -22.56,-17.69 -41.01,-17.69 -13.1,0 -23.82,3.11 -32.05,9.34 -8.32,6.23 -14.38,15.71 -18.28,28.41 -3.87,12.68 -5.81,28.67 -5.76,48.02 -0.05,27.69 4.39,48.3 13.43,61.85 9,13.54 23.04,20.28 42.05,20.23 17.33,-0.04 30.6,-5.05 39.91,-14.9 9.29,-9.87 14.04,-24.26 14.31,-43.12l-24.13 0zm-60.18 -43.03c-0.05,-16.27 2.5,-28.41 7.69,-36.41 5.11,-8.02 13.05,-12.03 23.65,-12 9.4,0 16.51,3.68 21.31,11.05 4.8,7.35 7.21,18.4 7.21,33.12l0 4.24 -59.86 0zm231.89 97.08l0 -16.98c-0.8,0.14 -1.51,0.28 -2.13,0.37 -0.68,0.14 -1.31,0.2 -1.96,0.2 -3.6,0.04 -6.2,-0.9 -7.85,-2.75 -1.69,-1.83 -2.49,-4.8 -2.49,-8.87l0 -93.12c0.07,-14.76 -3.8,-25.61 -11.64,-32.51 -7.89,-6.88 -20.04,-10.33 -36.62,-10.24 -11.84,-0.04 -21.62,1.62 -29.24,4.87 -7.56,3.29 -13.22,8.34 -16.92,15.28 -3.71,6.88 -5.7,15.71 -5.86,26.54l23.19 0 0 -2.81c0,-8.64 2.15,-14.97 6.44,-19.07 4.28,-4.15 10.8,-6.18 19.58,-6.14 8.77,-0.04 15.3,1.37 19.58,4.35 4.29,2.97 6.42,7.74 6.42,14.34l0 14.72c0,2.75 -0.41,5 -1.4,6.79 -0.94,1.79 -2.45,3.36 -4.6,4.63 -2.13,1.32 -5.03,2.55 -8.5,3.73 -3.56,1.23 -7.89,2.6 -13.07,4.1 -8.93,2.61 -16.65,5.3 -23.24,8.07 -6.58,2.73 -12.01,6 -16.29,9.71 -4.35,3.7 -7.53,8.31 -9.66,13.83 -2.09,5.52 -3.13,12.37 -3.13,20.48 0.05,9.39 1.67,17.31 4.84,23.92 3.2,6.56 7.8,11.56 13.8,15 6.07,3.48 13.27,5.19 21.79,5.23 9.75,-0.04 18.22,-2.16 25.3,-6.45 7.12,-4.26 12.54,-10.49 16.38,-18.74 0.36,7.41 2.54,13.07 6.51,17 3.99,3.9 9.4,5.89 16.34,5.94 2.21,0 4.5,-0.14 6.87,-0.38 2.39,-0.28 4.91,-0.62 7.56,-1.04zm-38.86 -86.06l0 31.44c-0.04,8.14 -1.47,15.09 -4.3,20.84 -2.79,5.81 -6.71,10.24 -11.74,13.3 -5.06,3.06 -10.87,4.57 -17.48,4.63 -7.1,-0.05 -12.61,-2.22 -16.41,-6.51 -3.87,-4.29 -5.79,-10.43 -5.86,-18.4 0,-5.28 0.6,-9.67 1.69,-13.16 1.09,-3.5 2.81,-6.42 5.06,-8.69 2.23,-2.3 5.13,-4.24 8.62,-5.84 3.46,-1.6 7.52,-3.12 12.22,-4.57 4.07,-1.28 7.89,-2.55 11.33,-3.78 3.51,-1.18 6.68,-2.5 9.51,-3.96 2.83,-1.46 5.28,-3.26 7.36,-5.3zm63.92 85.77l24.45 0 0 -212.85 -24.45 0 0 212.85zm89.96 -32.84l0 -107.83 28.51 0 0 -18.4 -28.51 0 0 -42.46 -24.12 0 0 42.46 -24.45 0 0 18.4 24.45 0 0 118.59c0,8.5 2.79,14.81 8.53,18.96 5.71,4.15 14.31,6.23 25.93,6.23 1.86,0 4.38,-0.05 7.4,-0.19 3.1,-0.09 6.7,-0.23 10.77,-0.37l0 -19.53c-1.09,0.14 -2.15,0.23 -3.08,0.23 -0.95,0.05 -1.77,0.05 -2.56,0.05 -5.99,0.04 -10.66,-0.25 -13.99,-1 -3.36,-0.71 -5.71,-2.22 -7.02,-4.52 -1.29,-2.36 -1.92,-5.86 -1.86,-10.62zm48.85 32.84l24.77 0 0 -107.85c0.05,-7.3 1.57,-13.53 4.6,-18.72 3.02,-5.19 7.24,-9.16 12.64,-11.89 5.37,-2.78 11.64,-4.2 18.79,-4.2 8.83,-0.05 15.21,2.13 19.07,6.56 3.85,4.38 5.79,11.14 5.69,20.34l0 115.76 24.74 0 0 -126.53c0,-7.58 -1.7,-14.05 -5.06,-19.38 -3.32,-5.33 -8.23,-9.43 -14.62,-12.26 -6.37,-2.83 -14.11,-4.29 -23.24,-4.29 -9.81,0 -18.28,1.69 -25.27,5.14 -7.05,3.4 -12.86,8.58 -17.34,15.52l0 -71.03 -24.77 0 0 212.85zm232.54 -56.04c-0.37,13.35 -3.03,23.39 -7.99,30.24 -4.96,6.79 -12.01,10.24 -21.15,10.24 -8.52,0.05 -15.25,-2.27 -20.22,-6.84 -4.96,-4.57 -8.47,-11.64 -10.55,-21.13 -2.15,-9.48 -3.13,-21.62 -3.08,-36.29 -0.05,-14.62 0.93,-26.6 3.01,-35.99 2.11,-9.43 5.66,-16.41 10.57,-20.95 4.91,-4.52 11.55,-6.79 19.95,-6.74 8.67,0 15.42,2.86 20.22,8.63 4.79,5.75 7.46,14.28 7.97,25.61l24.14 0 0 -3.4c-0.07,-10.52 -2.25,-19.58 -6.59,-27.12 -4.34,-7.54 -10.43,-13.35 -18.38,-17.42 -7.94,-4.06 -17.38,-6.08 -28.32,-6.14 -19.98,0 -34.88,6.9 -44.64,20.62 -9.76,13.79 -14.62,34.45 -14.57,62.05 -0.05,28.55 4.58,49.87 14.06,63.87 9.39,14.06 23.9,21.09 43.6,21.04 11.86,-0.04 21.93,-2.36 30.28,-7.02 8.37,-4.63 14.76,-11.42 19.14,-20.39 4.43,-8.95 6.64,-19.91 6.68,-32.88l-24.13 0zm173.3 56.33l0 -16.98c-0.8,0.14 -1.51,0.28 -2.15,0.37 -0.68,0.14 -1.29,0.2 -1.94,0.2 -3.59,0.04 -6.22,-0.9 -7.87,-2.75 -1.67,-1.83 -2.47,-4.8 -2.47,-8.87l0 -93.12c0.05,-14.76 -3.8,-25.61 -11.64,-32.51 -7.89,-6.88 -20.06,-10.33 -36.62,-10.24 -11.84,-0.04 -21.62,1.62 -29.24,4.87 -7.56,3.29 -13.22,8.34 -16.92,15.28 -3.72,6.88 -5.71,15.71 -5.86,26.54l23.19 0 0 -2.81c0,-8.64 2.15,-14.97 6.43,-19.07 4.29,-4.15 10.82,-6.18 19.59,-6.14 8.78,-0.04 15.28,1.37 19.58,4.35 4.28,2.97 6.42,7.74 6.42,14.34l0 14.72c0,2.75 -0.41,5 -1.4,6.79 -0.94,1.79 -2.45,3.36 -4.6,4.63 -2.15,1.32 -5.03,2.55 -8.5,3.73 -3.58,1.23 -7.89,2.6 -13.07,4.1 -8.93,2.61 -16.67,5.3 -23.24,8.07 -6.58,2.73 -12.01,6 -16.3,9.71 -4.35,3.7 -7.52,8.31 -9.66,13.83 -2.08,5.52 -3.13,12.37 -3.13,20.48 0.07,9.39 1.69,17.31 4.86,23.92 3.19,6.56 7.79,11.56 13.78,15 6.08,3.48 13.29,5.19 21.79,5.23 9.76,-0.04 18.23,-2.16 25.32,-6.45 7.1,-4.26 12.54,-10.49 16.36,-18.74 0.37,7.41 2.55,13.07 6.52,17 3.97,3.9 9.4,5.89 16.34,5.94 2.2,0 4.5,-0.14 6.85,-0.38 2.4,-0.28 4.9,-0.62 7.58,-1.04zm-38.86 -86.06l0 31.44c-0.05,8.14 -1.46,15.09 -4.29,20.84 -2.8,5.81 -6.71,10.24 -11.74,13.3 -5.06,3.06 -10.87,4.57 -17.48,4.63 -7.12,-0.05 -12.61,-2.22 -16.41,-6.51 -3.87,-4.29 -5.79,-10.43 -5.86,-18.4 0,-5.28 0.58,-9.67 1.67,-13.16 1.09,-3.5 2.83,-6.42 5.08,-8.69 2.23,-2.3 5.11,-4.24 8.62,-5.84 3.44,-1.6 7.51,-3.12 12.22,-4.57 4.05,-1.28 7.87,-2.55 11.33,-3.78 3.51,-1.18 6.68,-2.5 9.51,-3.96 2.81,-1.46 5.26,-3.26 7.36,-5.3zm64.23 85.77l24.47 0 0 -97.36c0.04,-9.25 1.66,-17.08 4.91,-23.5 3.24,-6.37 7.82,-11.22 13.78,-14.53 6,-3.34 13.1,-5 21.4,-5 1.89,0 3.61,0.14 5.23,0.47 1.57,0.28 3.09,0.79 4.5,1.51l0 -23.78c-1.89,-0.28 -3.72,-0.42 -5.43,-0.53 -1.77,-0.04 -3.51,-0.04 -5.23,-0.04 -6.1,0 -11.74,1.18 -17.02,3.48 -5.26,2.32 -9.92,5.67 -13.99,10.1 -4.04,4.43 -7.27,9.82 -9.73,16.13l0 -26.03 -22.88 0 0 159.07zm171.73 -53.78l0 1.13c-0.05,8.07 -1.21,14.92 -3.56,20.62 -2.33,5.67 -5.57,10.01 -9.81,13.02 -4.23,3.03 -9.13,4.54 -14.82,4.57 -7.58,0 -13.75,-2.08 -18.44,-6.26 -4.7,-4.21 -8.14,-10.52 -10.35,-18.96 -2.15,-8.49 -3.24,-19.12 -3.2,-31.94l0 -7.07 84.63 0c0.15,-2.41 0.24,-4.77 0.24,-7.03 0.07,-2.31 0.07,-4.57 0.07,-6.84 0.05,-23.77 -4.34,-41.55 -13.2,-53.36 -8.88,-11.79 -22.58,-17.69 -41.01,-17.69 -13.1,0 -23.82,3.11 -32.06,9.34 -8.31,6.23 -14.36,15.71 -18.28,28.41 -3.85,12.68 -5.79,28.67 -5.74,48.02 -0.05,27.69 4.38,48.3 13.41,61.85 9.02,13.54 23.05,20.28 42.05,20.23 17.32,-0.04 30.62,-5.05 39.9,-14.9 9.29,-9.87 14.04,-24.26 14.31,-43.12l-24.13 0zm-60.18 -43.03c-0.04,-16.27 2.52,-28.41 7.7,-36.41 5.09,-8.02 13.05,-12.03 23.63,-12 9.4,0 16.52,3.68 21.33,11.05 4.79,7.35 7.21,18.4 7.21,33.12l0 4.24 -59.87 0zm333.76 96.8l30.38 0 -31.66 -41.32c4.75,-6.37 8.67,-14.44 11.77,-24.12 3.06,-9.66 5.09,-20.9 6.08,-33.63l-25.06 0c-0.77,8.92 -1.82,16.71 -3.17,23.25 -1.33,6.61 -2.78,11.98 -4.35,16.1l-45.12 -59.44c13.17,-7.37 22.99,-15.48 29.44,-24.4 6.49,-8.87 9.73,-18.49 9.73,-28.81 -0.1,-8.16 -2.09,-15.34 -6.12,-21.48 -3.95,-6.12 -9.39,-10.89 -16.29,-14.34 -6.9,-3.45 -14.77,-5.19 -23.67,-5.24 -9.56,0.05 -17.85,1.93 -24.86,5.63 -7,3.68 -12.42,8.76 -16.29,15.27 -3.87,6.47 -5.79,13.93 -5.86,22.41 0,4.26 0.84,9.02 2.52,14.16 1.67,5.19 4.16,10.66 7.51,16.36 3.34,5.77 7.52,11.61 12.54,17.61 -10.77,5.7 -19.6,11.75 -26.55,18.07 -6.93,6.32 -12.11,13.21 -15.43,20.67 -3.36,7.44 -5.03,15.65 -5.03,24.66 0.05,9.29 1.67,17.78 4.8,25.38 3.17,7.6 7.62,14.16 13.43,19.67 5.74,5.47 12.57,9.73 20.51,12.7 7.89,2.97 16.61,4.48 26.12,4.52 11.48,-0.04 22.24,-2.11 32.17,-6.23 9.96,-4.15 18.64,-10.13 26.12,-18.12l16.3 20.67zm-29.15 -38.2c-5.39,6.7 -11.59,11.79 -18.61,15.32 -6.98,3.53 -14.41,5.29 -22.15,5.33 -6.3,-0.04 -12.04,-1.18 -17.26,-3.34 -5.25,-2.22 -9.78,-5.25 -13.6,-9.15 -3.8,-3.87 -6.78,-8.36 -8.87,-13.41 -2.09,-5.1 -3.19,-10.52 -3.19,-16.27 0,-9.45 2.62,-17.93 7.89,-25.52 5.28,-7.6 13.28,-14.58 24.08,-20.9l51.71 67.94zm-43.25 -96.24c-6.12,-7.69 -10.61,-14.72 -13.53,-21.04 -2.93,-6.37 -4.34,-11.61 -4.34,-15.76 0.05,-7.12 1.99,-12.68 5.74,-16.66 3.82,-3.91 9.1,-5.95 15.9,-5.98 6.78,0.04 12.17,2.02 16.01,5.98 3.87,3.92 5.85,9.34 5.91,16.38 0,6.84 -2.25,13.49 -6.64,19.91 -4.38,6.4 -10.68,12.12 -19.05,17.17zm206.2 134.44l25.37 0 -2.18 -187.94 83.04 187.94 33.53 0 0 -212.85 -25.39 0 2.51 182.55 -81.78 -182.55 -35.1 0 0 212.85zm265.1 0l22.88 0 0 -159.07 -25.06 0 0 105.58c-0.05,8.11 -1.57,15.01 -4.58,20.65 -3.05,5.63 -7.36,9.92 -12.95,12.84 -5.59,2.92 -12.3,4.43 -20.07,4.43 -6.63,-0.05 -11.7,-1.85 -15.3,-5.42 -3.54,-3.59 -5.33,-8.69 -5.38,-15.25l0 -122.84 -25.69 0 0 122.27c0,9.45 1.41,17.17 4.34,23.22 2.91,6.08 7.51,10.55 13.79,13.49 6.2,2.92 14.31,4.33 24.17,4.33 10.7,-0.04 19.85,-2.22 27.31,-6.51 7.51,-4.29 13.07,-10.42 16.54,-18.4l0 20.67z"/>
    <path class="fil7" d="M4665.34 3107.04l0 -107.83 28.51 0 0 -18.4 -28.51 0 0 -42.46 -24.12 0 0 42.46 -24.45 0 0 18.4 24.45 0 0 118.59c0,8.5 2.79,14.81 8.54,18.96 5.71,4.15 14.33,6.23 25.93,6.23 1.86,0 4.38,-0.05 7.39,-0.19 3.1,-0.09 6.7,-0.23 10.77,-0.37l0 -19.53c-1.09,0.14 -2.15,0.23 -3.07,0.23 -0.95,0.05 -1.77,0.05 -2.57,0.05 -6,0.04 -10.67,-0.25 -13.99,-1 -3.35,-0.71 -5.71,-2.22 -7,-4.52 -1.31,-2.36 -1.94,-5.86 -1.88,-10.62zm48.87 32.84l24.45 0 0 -97.36c0.04,-9.25 1.65,-17.08 4.91,-23.5 3.24,-6.37 7.84,-11.22 13.78,-14.53 6,-3.34 13.12,-5 21.42,-5 1.88,0 3.6,0.14 5.21,0.47 1.57,0.28 3.1,0.79 4.5,1.51l0 -23.78c-1.89,-0.28 -3.7,-0.42 -5.44,-0.53 -1.77,-0.04 -3.51,-0.04 -5.21,-0.04 -6.12,0 -11.75,1.18 -17.02,3.48 -5.28,2.32 -9.93,5.67 -14.01,10.1 -4.04,4.43 -7.26,9.82 -9.71,16.13l0 -26.03 -22.88 0 0 159.07zm90.87 0l25.39 0 0 -159.07 -25.39 0 0 159.07zm0 -183.98l25.39 0 0 -28.86 -25.39 0 0 28.86zm90.88 151.14l0 -107.83 28.51 0 0 -18.4 -28.51 0 0 -42.46 -24.13 0 0 42.46 -24.45 0 0 18.4 24.45 0 0 118.59c0,8.5 2.8,14.81 8.55,18.96 5.69,4.15 14.32,6.23 25.92,6.23 1.88,0 4.38,-0.05 7.4,-0.19 3.1,-0.09 6.7,-0.23 10.77,-0.37l0 -19.53c-1.09,0.14 -2.13,0.23 -3.07,0.23 -0.95,0.05 -1.77,0.05 -2.57,0.05 -6,0.04 -10.65,-0.25 -13.99,-1 -3.34,-0.71 -5.71,-2.22 -7,-4.52 -1.31,-2.36 -1.93,-5.86 -1.88,-10.62zm48.54 32.84l25.4 0 0 -159.07 -25.4 0 0 159.07zm0 -183.98l25.4 0 0 -28.86 -25.4 0 0 28.86zm84 104.44c-0.05,-14.53 0.94,-26.54 3.02,-36.08 2.15,-9.58 5.74,-16.71 10.97,-21.42 5.18,-4.71 12.28,-7.02 21.42,-7.02 8.94,-0.05 15.98,2.25 21.15,6.93 5.18,4.63 8.87,11.7 11.09,21.23 2.18,9.51 3.22,21.65 3.17,36.36 0.05,14.77 -1.04,26.98 -3.24,36.57 -2.23,9.57 -5.96,16.7 -11.11,21.32 -5.23,4.68 -12.23,6.98 -21.06,6.93 -9.03,0.05 -16.15,-2.25 -21.3,-6.93 -5.18,-4.63 -8.82,-11.75 -10.97,-21.32 -2.15,-9.58 -3.19,-21.79 -3.14,-36.57zm-26.32 0c-0.07,19.12 2.08,34.86 6.37,47.28 4.33,12.35 11,21.55 20.16,27.55 9.08,5.98 20.84,9 35.2,8.95 14.35,0 26.17,-2.97 35.3,-9.01 9.13,-6.03 15.93,-15.23 20.26,-27.63 4.35,-12.37 6.54,-28.13 6.49,-47.14 0.05,-18.96 -2.15,-34.62 -6.52,-47.07 -4.41,-12.45 -11.18,-21.71 -20.38,-27.83 -9.15,-6.14 -20.84,-9.16 -35.15,-9.16 -21.11,0 -36.67,6.95 -46.74,20.89 -10.09,13.97 -15.06,35.01 -14.99,63.17zm156.36 79.54l24.77 0 0 -107.85c0.04,-7.3 1.55,-13.53 4.53,-18.72 2.98,-5.19 7.14,-9.16 12.54,-11.89 5.37,-2.78 11.69,-4.2 18.95,-4.2 8.47,0 14.69,2.13 18.76,6.42 4,4.24 6.05,10.71 5.99,19.33l0 116.91 24.76 0 0 -115.2c0.1,-10.75 -1.16,-19.63 -3.77,-26.61 -2.56,-6.98 -6.99,-12.17 -13.26,-15.57 -6.27,-3.39 -14.94,-5.08 -25.91,-5.08 -10.5,0 -19.42,1.93 -26.79,5.75 -7.36,3.87 -13.17,9.67 -17.4,17.45l0 -19.81 -23.19 0 0 159.07z"/>
   </g>
  </g>
 </g>
</svg>
